<?xml version="1.0" encoding="UTF-8"?>
<svg id="Layer_2" data-name="Layer 2" xmlns="http://www.w3.org/2000/svg" xmlns:xlink="http://www.w3.org/1999/xlink" viewBox="0 0 13.89 15.37">
  <defs>
    <style>
      .cls-1 {
        fill: none;
      }

      .cls-2 {
        fill: #1a1818;
      }

      .cls-3 {
        fill: url(#linear-gradient);
      }

      .cls-4 {
        clip-path: url(#clippath-1);
      }

      .cls-5 {
        fill: #42403e;
      }

      .cls-6 {
        fill: #0c0c0c;
      }

      .cls-7 {
        clip-path: url(#clippath);
      }
    </style>
    <clipPath id="clippath">
      <rect class="cls-1" width="13.89" height="15.37"/>
    </clipPath>
    <linearGradient id="linear-gradient" x1="186.01" y1="-46.07" x2="186.01" y2="13.41" gradientUnits="userSpaceOnUse">
      <stop offset=".08" stop-color="#171815"/>
      <stop offset="1" stop-color="#242424"/>
    </linearGradient>
    <clipPath id="clippath-1">
      <path class="cls-1" d="M369.62-.84c-.49-3.64-2.13-7.31-2.06-10.9-.48-1.86-.06-3.5,1.03-5.33.32-.59.82-1.2,1.1-1.82v-1.56c-.2-.33-.55-.65-1.14-.98-3.06-2.29,1.17-4.72.07-6.98.55-2.99-1.32-5.31-1.86-8.35h1.55c-1.82-4.06-5.3-7.21-9.58-8.58-.23.06-.21.12.17.17-.04.75-4.7.24-9.65.84-4.95,1.19-10.19-2.11-11.4-.18-3.33,1.22-6.58-2.99-9.82-.94-3.25,1.27-6.49,1.85-9.81,1.01-2.76.04-5.6-1.01-8.44-1.64h-6.55c-.97.32-1.93.83-2.88,1.59-3.39,1-6.12-2.16-9.59-.89-3.96.53-8.06.06-11.98,1.82-.88-1.36-1.51-2.19-2.13-2.52h-1.36c-.32.15-.68.38-1.09.7-1.34.23-2.78,3.83-4.12-.12-2.1,2.59-3.83.31-6.02.03-2.34-1.15-5.03,1.73-7.41-.05-2.08,1.52-4.44.26-6.47-.05-.44.36-.94.22-1.11.76-2.78-2.04-5.58,1.27-8.29.18-4.45.36-8.97.74-13.43-.02-4.11-1.59-8.27.24-12.37-.49-3.37-2.42-6.45.67-9.73.23-2.41.73-3.78,1.46-5.56-.92-.05-.1-.09-.19-.14-.27h-1.84c-.96,1-1.96,2.64-3.05.91-3.34-.9-6-.39-9.79,1.03-3.94-2.3-10.28-2.11-13.45-.26-2.66-.07-4.68.63-7.19.97-3.01-1.75-4.45-2.47-7.3-1.67-1.67-.64-3.27-.92-4.84-.99h-1.76c-2.66.11-5.32.66-8.26.92-.39-.33-.77-.64-1.15-.92h-11.16c-.3.05-.57.09-.76.05-.65,1.51-3.78-.03-4.4.09-1.94,1.71-5.57,1.02-7.67.49-2.51-1.44-4.32.16-6.84-.42-.16-.09-.32-.16-.49-.21h-1.66c-2.06.48-4.22,2.29-6.18.46-.19-.19-.39-.33-.6-.46h-4.69c-.83.21-1.6.41-2.23.46-2.14-.7-3.55,3.39-6.1.41-1.68-.46-3.48-.68-5.19-.86h-1.5c-3.12.66-5.86,2.58-9.03,0h-.8c-2.78.93-5.55,1.98-8.33,0h-.44c-2.31,2.46-3.9-.45-5.8.71-1.24.49-2.15,1.26-3.47-.71h-.55c-1.65,1.47-3.57,1.62-5.19.84-.5.41-4.06-.52-5.23-.47-4.55,1.51-9.56-1.41-14.11.53-2.73.09-5.45.82-8.17.7-.65-.71-1.2-1.25-1.71-1.59h-.87c-.57,0-1.12.03-1.67.09-.02.02-.05.02-.07.04-.02-.01-.03-.01-.05-.02-.19.02-.37.06-.55.08-.89.72-1.92,3.57-2.66,1.28-.2-.16-.37-.28-.53-.38v-.08c-3.93,1.48-7.11,4.48-8.82,8.3h2.05c-.54,3.04-2.41,5.36-1.86,8.35-1.1,2.26,3.13,4.69.07,6.98-2.59,1.43-.81,2.94-.04,4.36,1.08,1.83,1.5,3.47,1.03,5.33.08,4.32-2.32,8.78-2.18,13.14,1.21,5.12,4.91,9.26,9.76,11.08v-1.95c.16-.1.33-.21.53-.38.92-2.82,2.26,2.18,3.26,1.34,1.61,1.13,2.59.42,4.32-1.46,2.73-.12,5.44.61,8.17.7,4.55,1.93,9.56-.99,14.11.53,1.17.04,4.74-.88,5.23-.47,1.74-.84,3.82-.63,5.54,1.15,1.43-2.37,2.36-1.54,3.67-1.03,1.94,1.19,3.56-1.92,5.97.9,3.05-2.39,6.1-.98,9.15,0,3.45-3.04,6.38-.61,9.81-.08,1.98-.21,4.15-.42,6.14-.97,2.55-2.98,3.96,1.11,6.1.41,2,.14,5.55,1.98,7.52,0,2.65-2.49,5.68,1.73,8.33.25,2.52-.58,4.33,1.02,6.84-.42,2.09-.53,5.72-1.22,7.67.49.62.12,3.75-1.41,4.4.09.89-.15,3.28.98,4.35.15,3.13,3.03,5.69,1.52,8.72-1.02,5.31.47,9.72,1.9,14.85-.07,2.85.8,4.29.07,7.3-1.67,2.51.34,4.53,1.04,7.19.97,3.17,1.86,9.51,2.04,13.45-.26,3.79,1.42,6.46,1.93,9.79,1.03,1.86-2.95,3.48,3.94,5.03.64,1.79-2.38,3.16-1.64,5.56-.92,3.28-.44,6.36,2.66,9.73.23,4.1-.73,8.26,1.09,12.37-.49,4.46-.76,8.98-.37,13.43-.02,2.71-1.09,5.51,2.22,8.29.18.16.54.67.4,1.11.76,2.03-.31,4.38-1.57,6.47-.05,2.38-1.78,5.07,1.1,7.41-.05,2.19-.28,3.92-2.57,6.02.03,1.33-3.95,2.78-.35,4.12-.12,1.99,1.58,2.71,1.07,4.58-1.82,3.92,1.76,8.03,1.3,11.98,1.82,3.47,1.28,6.19-1.89,9.59-.89,5.84,4.66,12.01-.13,17.87-.05,3.32-.84,6.57-.26,9.81,1.01,3.25,2.05,6.49-2.16,9.82-.94,1.22,1.93,6.46-1.37,11.4-.18,4.95.6,9.6.09,9.65.84-.75.1-.11.23,1.09.32v1.27c5.29-2.2,9.11-7.2,9.63-13.15Z"/>
    </clipPath>
  </defs>
  <g id="Layer_1-2" data-name="Layer 1">
    <g class="cls-7">
      <g>
        <path class="cls-2" d="M309.78-46.07c2.79.62,5.57,1.64,8.29,1.64.05,0,.1,0,.15,0,1.07.27,2.14.4,3.2.4,2.22,0,4.42-.54,6.62-1.4.66-.41,1.31-.57,1.97-.57,2.17,0,4.34,1.74,6.55,1.74.43,0,.87-.07,1.3-.23.29-.46.8-.62,1.48-.62,1.74,0,4.56,1.07,7.54,1.07.79,0,1.59-.08,2.39-.27,4.95-.6,9.6-.09,9.65-.84-.38-.05-.4-.11-.17-.17,4.29,1.36,7.76,4.52,9.58,8.58h-1.55c.54,3.04,2.41,5.36,1.86,8.35,1.1,2.26-3.13,4.69-.07,6.98.58.32.94.65,1.14.98v1.56c-.28.61-.78,1.22-1.1,1.82-1.08,1.83-1.5,3.47-1.03,5.33-.07,3.59,1.57,7.26,2.06,10.9-.52,5.95-4.34,10.95-9.63,13.15v-1.27c-1.2-.09-1.84-.22-1.09-.32-.04-.75-4.7-.24-9.65-.84-.79-.19-1.6-.27-2.39-.27-2.97,0-5.8,1.07-7.54,1.07-.68,0-1.19-.16-1.48-.62-.44-.16-.87-.23-1.3-.23-2.21,0-4.38,1.74-6.55,1.74-.66,0-1.31-.16-1.97-.57-2.2-.86-4.4-1.4-6.62-1.4-1.06,0-2.12.12-3.2.4-.05,0-.1,0-.14,0-3.89,0-7.92,2.1-11.89,2.1-1.96,0-3.92-.51-5.83-2.04-.48-.14-.94-.2-1.4-.2-2.22,0-4.22,1.39-6.45,1.39-.56,0-1.14-.09-1.73-.31-3.96-.53-8.06-.06-11.98-1.82-1.18,1.83-1.9,2.7-2.77,2.7-.51,0-1.07-.3-1.8-.88-.87-.15-1.79-1.72-2.68-1.72-.48,0-.96.46-1.43,1.84-.74-.92-1.44-1.23-2.13-1.23-1.25,0-2.48,1.02-3.89,1.2-.41.2-.83.28-1.26.28-1.41,0-2.89-.83-4.33-.83-.62,0-1.23.15-1.82.6-.75-.55-1.54-.73-2.33-.73-1.41,0-2.84.59-4.13.78-.44-.36-.94-.22-1.11-.76-.68.5-1.37.68-2.05.68-1.69,0-3.37-1.09-5.03-1.09-.4,0-.81.06-1.21.23-2.56-.2-5.15-.42-7.73-.42-1.9,0-3.81.12-5.7.44-1.33.52-2.67.67-4.01.67-2.04,0-4.08-.36-6.11-.36-.75,0-1.5.05-2.24.18-.97.7-1.91.94-2.85.94-2.09,0-4.12-1.21-6.22-1.21-.22,0-.44.01-.67.04-1.17-.35-2.09-.71-2.94-.71-.9,0-1.71.4-2.63,1.62-.31.66-.63.91-.95.91-.97,0-1.98-2.31-3.07-2.31-.33,0-.66.21-1.01.75-1.13.3-2.18.45-3.23.45-2.04,0-4.06-.54-6.56-1.48-1.99,1.16-4.58,1.69-7.07,1.69s-4.8-.51-6.38-1.43c-.12,0-.24,0-.36,0-2.48,0-4.43-.65-6.83-.97-2.18,1.27-3.54,2-5.21,2-.63,0-1.31-.1-2.09-.33-1.97.76-3.83,1.01-5.68,1.01-2.97,0-5.9-.66-9.17-.94-1.84,1.54-3.5,2.7-5.23,2.7-1.12,0-2.26-.49-3.49-1.68-.29.23-.68.31-1.11.31-1.05,0-2.34-.47-3.05-.47-.07,0-.13,0-.19.01-.22-.5-.71-.67-1.29-.67-1.1,0-2.51.58-3.02.58-.03,0-.06,0-.08,0-.93-.82-2.24-1.09-3.59-1.09-1.47,0-2.99.32-4.08.6-.83.48-1.59.62-2.32.62-1.1,0-2.15-.33-3.32-.33-.39,0-.79.04-1.21.13-.41.23-.84.32-1.27.32-1.66,0-3.42-1.38-5.11-1.38-.66,0-1.32.21-1.95.81-.68.68-1.54.91-2.47.91-1.76,0-3.74-.82-5.05-.91-.17.06-.34.08-.51.08-1.31,0-2.39-1.59-3.72-1.59-.57,0-1.18.29-1.87,1.1-1.98.55-4.15.75-6.14.97-2.16-.33-4.12-1.42-6.14-1.42-1.19,0-2.39.38-3.67,1.5-1.81-.58-3.62-1.32-5.43-1.32-1.24,0-2.48.34-3.72,1.32-.8-.94-1.52-1.22-2.19-1.22-.99,0-1.87.61-2.79.61-.33,0-.65-.08-.99-.28-.63-.25-1.18-.57-1.73-.57-.6,0-1.2.37-1.94,1.59-1.09-1.13-2.32-1.63-3.52-1.63-.69,0-1.38.17-2.02.48-.09-.07-.28-.1-.54-.1-1.14,0-3.58.58-4.61.58-.03,0-.06,0-.09,0-1.01-.34-2.05-.45-3.1-.45-2.4,0-4.87.61-7.28.61-1.27,0-2.52-.17-3.74-.69-2.53-.09-5.04-.72-7.56-.72-.2,0-.41,0-.61.01-1.17,1.27-1.99,2.01-2.9,2.01-.44,0-.9-.17-1.42-.54-.08.07-.16.1-.24.1-.73,0-1.6-2.31-2.35-2.31-.24,0-.47.24-.67.87-.2.16-.37.28-.53.38v1.95C7.4,10.66,3.7,6.52,2.49,1.41c-.14-4.36,2.27-8.82,2.18-13.14.48-1.86.06-3.5-1.03-5.33-.77-1.42-2.55-2.93.04-4.36,3.06-2.29-1.17-4.72-.07-6.98-.55-2.99,1.32-5.31,1.86-8.35h-2.05c1.71-3.82,4.89-6.82,8.82-8.3v.08c.16.1.33.21.53.38.21.63.43.87.67.87.63,0,1.34-1.63,1.99-2.15.18-.03.37-.06.55-.08.02.01.03,0,.05.02.02-.02.05-.02.07-.04.55-.06,1.11-.09,1.67-.09h.87c.51.34,1.06.88,1.71,1.59.2,0,.41.01.61.01,2.52,0,5.04-.63,7.56-.72,1.22-.52,2.47-.69,3.74-.69,2.41,0,4.88.61,7.28.61,1.05,0,2.08-.12,3.1-.45.03,0,.06,0,.09,0,1.02,0,3.47.58,4.61.58.26,0,.45-.03.54-.1.63.31,1.31.47,1.99.47,1.08,0,2.19-.41,3.2-1.31h.55c.65.97,1.2,1.28,1.74,1.28s1.1-.32,1.73-.56c.34-.21.67-.28,1-.28.91,0,1.8.6,2.78.6.62,0,1.28-.24,2.02-1.02h.44c1.16.83,2.31,1.12,3.47,1.12,1.62,0,3.24-.58,4.86-1.12h.8c1.2.97,2.33,1.31,3.45,1.31,1.84,0,3.64-.9,5.58-1.31h1.5c1.72.19,3.52.4,5.19.86.7.82,1.31,1.1,1.87,1.1,1.33,0,2.4-1.59,3.72-1.59.17,0,.33.03.51.08.62-.04,1.4-.25,2.23-.46h4.69c.21.12.42.27.6.46.63.59,1.28.81,1.95.81,1.39,0,2.83-.94,4.23-1.26h1.66c.16.05.33.12.49.21.42.1.82.13,1.21.13,1.17,0,2.21-.33,3.32-.33.73,0,1.48.14,2.32.62,1.09.28,2.61.6,4.08.6,1.35,0,2.66-.27,3.59-1.09.02,0,.05,0,.08,0,.51,0,1.92.58,3.02.58.58,0,1.07-.16,1.29-.67.05,0,.11.01.17.01.17,0,.37-.03.58-.07h11.16c.38.29.76.59,1.15.92,2.94-.26,5.6-.81,8.26-.92h1.76c1.57.07,3.17.35,4.84.99.78-.22,1.46-.33,2.09-.33,1.67,0,3.02.73,5.21,2,2.4-.32,4.34-.97,6.83-.97.12,0,.24,0,.36,0,1.57-.92,3.92-1.43,6.37-1.43,2.49,0,5.09.53,7.07,1.69,2.51-.94,4.52-1.48,6.56-1.48,1.05,0,2.1.14,3.23.45.34.54.68.75,1.01.75.71,0,1.39-.98,2.04-1.67h1.84c.05.08.09.17.14.27.92,1.22,1.73,1.62,2.63,1.62.85,0,1.77-.35,2.94-.71.22.03.44.04.67.04,2.1,0,4.13-1.21,6.22-1.21.93,0,1.88.24,2.85.94.75.13,1.49.18,2.24.18,2.03,0,4.08-.36,6.11-.36,1.34,0,2.68.16,4.01.67,1.89.32,3.79.44,5.7.44,2.58,0,5.17-.21,7.73-.42.4.16.8.23,1.21.23,1.66,0,3.34-1.09,5.03-1.09.68,0,1.37.18,2.05.68.16-.54.67-.4,1.11-.76,1.3.2,2.72.78,4.13.78.79,0,1.58-.19,2.33-.74.59.44,1.2.6,1.82.6,1.44,0,2.92-.83,4.33-.83.43,0,.85.08,1.26.28,1.41.18,2.64,1.2,3.89,1.2.69,0,1.39-.31,2.13-1.23.47,1.38.95,1.84,1.43,1.84.9,0,1.81-1.57,2.68-1.72.41-.33.77-.56,1.09-.7h1.36c.62.34,1.25,1.16,2.13,2.52,3.92-1.76,8.03-1.3,11.98-1.82.6-.22,1.17-.31,1.73-.31,2.23,0,4.23,1.39,6.45,1.39.46,0,.92-.06,1.4-.2.95-.76,1.92-1.27,2.88-1.59h6.55M309.78-47.9h-6.55c-.2,0-.39.03-.57.09-1.1.36-2.15.91-3.12,1.64-.19.04-.38.05-.58.05-.81,0-1.7-.29-2.64-.6-1.12-.37-2.4-.79-3.81-.79-.74,0-1.46.12-2.16.35-1.09.14-2.2.2-3.38.26-2.44.13-4.95.27-7.49,1.12-.66-.91-1.25-1.52-1.96-1.9-.27-.14-.56-.22-.87-.22h-1.36c-.26,0-.51.05-.75.16-.38.17-.77.4-1.2.72-.6.24-1.09.65-1.5,1.02,0-.02-.02-.05-.02-.07-.21-.63-.76-1.1-1.41-1.22-.11-.02-.22-.03-.32-.03-.55,0-1.07.25-1.43.68-.2.25-.49.55-.71.55-.28,0-.78-.22-1.27-.43-.61-.27-1.3-.57-2.1-.71-.55-.23-1.15-.34-1.79-.34-.96,0-1.85.26-2.65.48-.63.18-1.22.35-1.68.35-.3,0-.51-.07-.73-.23-.32-.24-.71-.36-1.1-.36s-.76.12-1.08.35c-.36.27-.75.38-1.26.38-.64,0-1.38-.19-2.16-.39-.55-.14-1.12-.29-1.69-.37-.09-.01-.19-.02-.28-.02-.39,0-.77.12-1.08.35-.02,0-.03.01-.05.02-.04.02-.09.03-.15.05-.59-.23-1.22-.34-1.87-.34-1.14,0-2.18.34-3.1.64-.72.23-1.39.45-1.93.45-.2,0-.37-.03-.53-.09-.22-.09-.45-.13-.68-.13-.05,0-.1,0-.15,0l-.24.02c-2.41.19-4.91.39-7.34.39-1.93,0-3.64-.13-5.22-.38-1.35-.49-2.78-.72-4.49-.72-1.1,0-2.18.1-3.22.19-1.01.09-1.96.17-2.89.17-.57,0-1.08-.03-1.55-.1-1.09-.69-2.25-1.02-3.53-1.02-1.31,0-2.54.36-3.62.68-.93.27-1.81.53-2.6.53-.15,0-.29,0-.42-.03-.08-.01-.16-.02-.24-.02-.18,0-.36.03-.53.08-.23.07-.45.14-.66.21-.72.23-1.34.42-1.74.42-.16,0-.46,0-1.07-.77-.04-.07-.08-.14-.11-.21-.33-.57-.93-.92-1.59-.92h-1.84c-.5,0-.98.2-1.32.57-.15.16-.31.34-.47.52-.05.06-.11.12-.17.19-.18-.14-.39-.24-.61-.3-1.27-.34-2.49-.51-3.71-.51-1.9,0-3.81.38-6.42,1.31-2.03-.98-4.55-1.52-7.21-1.52-2.58,0-5.03.52-6.83,1.43-1.74.01-3.22.3-4.66.58-.56.11-1.13.22-1.71.32-1.85-1.06-3.52-1.92-5.57-1.92-.63,0-1.29.08-2,.24-1.54-.53-3.14-.83-4.86-.9-.03,0-.05,0-.08,0h-1.76s-.05,0-.08,0c-1.6.07-3.14.28-4.77.5-.92.13-1.87.25-2.83.36-.22-.17-.42-.34-.62-.49-.32-.24-.71-.37-1.11-.37h-11.16c-.11,0-.21,0-.32.03-.13.02-.2.03-.24.04-.07,0-.13-.01-.2-.01-.55,0-1.06.25-1.41.66-.41-.03-1-.19-1.45-.31-.56-.15-1.01-.27-1.46-.27-.15,0-.3.01-.45.04-.31.06-.61.21-.85.42-.59.52-1.62.63-2.38.63-.95,0-2.07-.16-3.41-.49-.94-.49-1.92-.73-2.99-.73-.68,0-1.29.09-1.89.18-.5.08-.98.15-1.43.15-.21,0-.41-.02-.6-.05-.18-.08-.36-.15-.55-.21-.18-.05-.36-.08-.54-.08h-1.66c-.14,0-.28.02-.42.05-.68.16-1.31.41-1.92.66-.69.28-1.4.56-1.89.56-.22,0-.41-.05-.68-.29-.27-.27-.58-.5-.95-.72-.28-.16-.6-.25-.92-.25h-4.69c-.15,0-.3.02-.44.05l-.26.07c-.52.13-1.02.26-1.4.31-.21-.04-.42-.06-.63-.06-1.21,0-2.12.61-2.86,1.1-.25.17-.66.44-.84.49-.06-.03-.23-.14-.5-.45-.24-.28-.55-.48-.91-.58-1.8-.49-3.69-.73-5.48-.92-.07,0-.13-.01-.2-.01h-1.5c-.13,0-.25.01-.38.04-.8.17-1.55.4-2.27.63-1.05.33-2.05.64-2.93.64-.83,0-1.54-.28-2.3-.89-.33-.27-.74-.41-1.16-.41h-.8c-.2,0-.39.03-.58.09l-.35.12c-1.4.47-2.73.91-3.93.91-.89,0-1.66-.25-2.4-.78-.31-.22-.68-.34-1.07-.34h-.44c-.51,0-.99.21-1.34.58-.42.44-.62.44-.68.44-.21,0-.53-.1-.87-.22-.52-.17-1.17-.38-1.91-.38-.64,0-1.24.16-1.8.46-.13.05-.27.11-.39.17-.13.06-.3.13-.42.18-.07-.08-.18-.21-.33-.42-.34-.51-.91-.81-1.52-.81h-.55c-.45,0-.89.17-1.22.47-.62.56-1.29.84-1.97.84-.4,0-.8-.1-1.2-.29-.25-.12-.53-.18-.8-.18-.21,0-.41.03-.61.1-.46-.01-1.34-.16-2.06-.28-.95-.15-1.84-.3-2.48-.3-.06,0-.11,0-.16,0-.17,0-.34.04-.51.09-.73.24-1.55.36-2.52.36-1.08,0-2.21-.14-3.4-.29-1.26-.16-2.55-.32-3.88-.32-1.54,0-2.89.23-4.13.7-1.15.06-2.27.21-3.36.36-1.26.17-2.45.33-3.62.34-.48-.49-.98-.95-1.5-1.3-.3-.2-.65-.31-1.01-.31h-.87c-.6,0-1.23.03-1.87.1-.05,0-.09.01-.14.02-.15.02-.3.04-.44.07l-.17.03c-.32.05-.62.18-.88.38-.31.25-.58.57-.82.89-.06-.05-.12-.1-.18-.14-.31-.21-.68-.33-1.04-.33-.22,0-.44.04-.65.12-4.36,1.64-7.94,5.02-9.84,9.26-.25.57-.2,1.22.13,1.75.27.42.7.7,1.18.8-.09.25-.18.5-.28.75-.61,1.63-1.3,3.47-1.06,5.61-.44,1.52.23,2.89.74,3.93.63,1.29.65,1.38.21,1.72-1.15.66-1.85,1.5-2.09,2.48-.37,1.52.45,2.75,1.05,3.65.15.23.3.45.4.64.01.02.02.04.03.06.91,1.54,1.15,2.68.83,3.94-.04.16-.06.33-.06.49.04,1.88-.48,3.87-1.03,5.97C1.21-3.41.58-1.01.66,1.46c0,.12.02.24.05.36,1.34,5.69,5.42,10.31,10.89,12.38.21.08.43.12.65.12.37,0,.73-.11,1.04-.33.44-.31.73-.79.78-1.32.43.41.95.73,1.62.76.59.3,1.18.45,1.77.45,1.47,0,2.61-.9,3.7-2.02,1.17.02,2.36.18,3.62.34,1.09.15,2.21.3,3.36.36,1.23.47,2.59.7,4.13.7,1.32,0,2.62-.16,3.88-.32,1.19-.15,2.32-.29,3.4-.29.96,0,1.79.12,2.52.36.16.05.34.09.51.09.05,0,.1,0,.16,0,.65,0,1.54-.15,2.48-.3.72-.12,1.6-.26,2.06-.28.2.07.4.1.61.1.27,0,.54-.06.8-.18.4-.19.81-.29,1.22-.29.78,0,1.52.36,2.2,1.07.35.36.82.56,1.32.56.07,0,.14,0,.2-.01.57-.06,1.07-.39,1.36-.87.22-.37.39-.57.48-.67.11.04.28.12.42.18.13.06.26.12.4.17.56.31,1.16.46,1.8.46.75,0,1.4-.22,1.92-.39.34-.11.66-.22.87-.22.25,0,.57.31.8.58.36.42.88.64,1.39.64.4,0,.8-.13,1.13-.39.8-.63,1.63-.93,2.59-.93,1.2,0,2.52.44,3.92.91.32.11.64.21.96.32.18.06.37.09.56.09.44,0,.87-.16,1.21-.46,1.05-.92,1.87-1.04,2.46-1.04.88,0,1.87.31,2.93.64.92.29,1.88.59,2.93.75.09.01.19.02.28.02.07,0,.13,0,.2-.01l.42-.04c1.88-.2,4.02-.43,6.01-.98.35-.1.67-.3.91-.58.27-.32.44-.42.5-.45.18.05.59.32.84.49.74.49,1.65,1.1,2.86,1.1.21,0,.42-.02.63-.06.38.06.88.18,1.4.31,1.07.27,2.29.58,3.53.58,1.53,0,2.79-.48,3.74-1.43.26-.24.45-.29.67-.29.49,0,1.2.29,1.89.56.95.38,2.04.82,3.22.82.66,0,1.29-.14,1.87-.41.19-.03.39-.05.6-.05.45,0,.93.07,1.43.15.59.09,1.2.18,1.89.18,1.07,0,2.05-.24,2.99-.73,1.34-.33,2.46-.49,3.41-.49.76,0,1.78.11,2.38.63.24.21.53.36.85.42.14.03.29.04.45.04.45,0,.89-.12,1.46-.27.44-.12,1.03-.28,1.45-.31.35.42.86.66,1.41.66.07,0,.14,0,.22-.01.16.01.55.1.82.16.67.15,1.43.31,2.2.31.25,0,.49-.02.72-.06,1.25.96,2.53,1.43,3.88,1.43,2.2,0,4.13-1.28,5.81-2.64.96.1,1.91.23,2.83.36,1.96.27,3.82.52,5.76.52,2.07,0,3.96-.3,5.77-.93.71.16,1.37.24,2,.24,2.05,0,3.72-.86,5.57-1.92.58.09,1.15.21,1.71.32,1.44.28,2.92.57,4.66.58,1.8.91,4.25,1.43,6.83,1.43s5.19-.53,7.21-1.52c2.62.93,4.52,1.31,6.42,1.31,1.22,0,2.43-.17,3.71-.51.22-.06.43-.16.61-.3.06.07.12.14.17.19.68.77,1.52,1.73,2.82,1.73.73,0,1.75-.31,2.51-1.77.61-.77.9-.77,1.07-.77.4,0,1.02.2,1.74.42.21.07.43.14.66.21.17.05.35.08.53.08.08,0,.16,0,.24-.02.13-.02.28-.03.42-.03.79,0,1.67.26,2.6.53,1.08.32,2.31.68,3.62.68s2.44-.34,3.53-1.02c.48-.06.99-.1,1.55-.1.93,0,1.89.08,2.89.17,1.04.09,2.12.19,3.22.19,1.71,0,3.14-.23,4.49-.72,1.58-.26,3.29-.38,5.22-.38,2.43,0,4.93.2,7.34.39l.25.02s.1,0,.15,0c.23,0,.47-.04.68-.13.16-.06.33-.09.53-.09.54,0,1.21.22,1.93.45.92.3,1.96.64,3.1.64.66,0,1.28-.11,1.87-.34.06.02.11.04.15.05.02,0,.03.01.05.02.31.23.69.35,1.08.35.09,0,.19,0,.28-.02.58-.09,1.15-.23,1.69-.37.78-.2,1.52-.39,2.16-.39.5,0,.89.12,1.26.38.32.23.7.35,1.08.35s.77-.12,1.1-.36c.22-.16.43-.23.73-.23.47,0,1.06.17,1.68.35.79.23,1.69.48,2.64.48.63,0,1.23-.11,1.79-.34.8-.15,1.48-.44,2.1-.71.48-.21.99-.43,1.27-.43.22,0,.5.3.71.55.35.43.88.68,1.43.68.11,0,.22,0,.32-.03.66-.12,1.2-.59,1.41-1.22,0-.02.02-.05.02-.07.41.37.89.79,1.5,1.02.74.55,1.62,1.06,2.66,1.06,1.52,0,2.59-1.06,3.48-2.3,2.53.84,5.04.98,7.48,1.12,1.17.06,2.28.13,3.38.26.69.23,1.42.35,2.16.35,1.41,0,2.69-.42,3.81-.79.94-.31,1.83-.6,2.64-.6.2,0,.39.02.58.05,1.97,1.47,4.15,2.19,6.65,2.19,2.23,0,4.39-.57,6.48-1.12,1.91-.5,3.72-.98,5.41-.98h.12s.02,0,.02,0c.15,0,.3-.02.45-.06.89-.22,1.81-.34,2.75-.34,1.76,0,3.66.4,5.81,1.22.85.5,1.79.76,2.78.76,1.43,0,2.76-.53,3.92-.99.96-.38,1.87-.74,2.63-.74.11,0,.21,0,.3.02.51.45,1.29.82,2.48.82.94,0,1.97-.22,3.17-.47,1.35-.28,2.87-.6,4.37-.6.71,0,1.35.07,1.96.22.07.02.14.03.21.04,2.3.28,4.5.32,6.26.36.66.01,1.41.03,1.98.06.25.23.57.39.91.49.08.49.37.93.79,1.21.31.2.66.31,1.02.31.24,0,.48-.05.7-.14,6.06-2.52,10.18-8.14,10.75-14.68.01-.13,0-.27,0-.4-.21-1.58-.62-3.14-1.01-4.64-.55-2.1-1.07-4.09-1.03-5.97,0-.17-.02-.33-.06-.49-.32-1.26-.08-2.4.83-3.94.01-.02.02-.04.03-.06.1-.19.25-.4.4-.64.25-.38.54-.81.76-1.29.11-.24.17-.5.17-.77v-1.56c0-.34-.09-.67-.27-.96-.37-.6-.92-1.11-1.69-1.56-.45-.34-.43-.43.21-1.72.51-1.03,1.18-2.41.74-3.93.24-2.14-.45-3.97-1.06-5.61-.11-.3-.23-.6-.33-.9.3-.14.55-.37.74-.65.34-.52.39-1.18.14-1.75-2.05-4.57-5.95-8.06-10.7-9.58-.18-.06-.37-.09-.56-.09-.15,0-.3.02-.44.05-.42.11-.75.3-.99.54-.57.03-1.34.05-2,.06-1.76.04-3.96.08-6.26.36-.07,0-.14.02-.21.04-.6.15-1.24.22-1.96.22-1.5,0-3.02-.32-4.37-.6-1.19-.25-2.23-.47-3.17-.47-1.18,0-1.97.37-2.48.82-.1.01-.2.02-.3.02-.76,0-1.67-.36-2.63-.74-1.17-.47-2.49-.99-3.92-.99-.99,0-1.92.25-2.78.76-2.14.82-4.04,1.22-5.81,1.22-.93,0-1.86-.11-2.75-.34-.15-.04-.3-.06-.45-.06,0,0-.02,0-.02,0h-.12c-1.7,0-3.5-.47-5.41-.98-.81-.21-1.64-.43-2.48-.62-.13-.03-.26-.04-.4-.04h0Z"/>
        <path class="cls-3" d="M369.62-.84c-.49-3.64-2.13-7.31-2.06-10.9-.48-1.86-.06-3.5,1.03-5.33.32-.59.82-1.2,1.1-1.82v-1.56c-.2-.33-.55-.65-1.14-.98-3.06-2.29,1.17-4.72.07-6.98.55-2.99-1.32-5.31-1.86-8.35h1.55c-1.82-4.06-5.3-7.21-9.58-8.58-.23.06-.21.12.17.17-.04.75-4.7.24-9.65.84-4.95,1.19-10.19-2.11-11.4-.18-3.33,1.22-6.58-2.99-9.82-.94-3.25,1.27-6.49,1.85-9.81,1.01-2.76.04-5.6-1.01-8.44-1.64h-6.55c-.97.32-1.93.83-2.88,1.59-3.39,1-6.12-2.16-9.59-.89-3.96.53-8.06.06-11.98,1.82-.88-1.36-1.51-2.19-2.13-2.52h-1.36c-.32.15-.68.38-1.09.7-1.34.23-2.78,3.83-4.12-.12-2.1,2.59-3.83.31-6.02.03-2.34-1.15-5.03,1.73-7.41-.05-2.08,1.52-4.44.26-6.47-.05-.44.36-.94.22-1.11.76-2.78-2.04-5.58,1.27-8.29.18-4.45.36-8.97.74-13.43-.02-4.11-1.59-8.27.24-12.37-.49-3.37-2.42-6.45.67-9.73.23-2.41.73-3.78,1.46-5.56-.92-.05-.1-.09-.19-.14-.27h-1.84c-.96,1-1.96,2.64-3.05.91-3.34-.9-6-.39-9.79,1.03-3.94-2.3-10.28-2.11-13.45-.26-2.66-.07-4.68.63-7.19.97-3.01-1.75-4.45-2.47-7.3-1.67-1.67-.64-3.27-.92-4.84-.99h-1.76c-2.66.11-5.32.66-8.26.92-.39-.33-.77-.64-1.15-.92h-11.16c-.3.05-.57.09-.76.05-.65,1.51-3.78-.03-4.4.09-1.94,1.71-5.57,1.02-7.67.49-2.51-1.44-4.32.16-6.84-.42-.16-.09-.32-.16-.49-.21h-1.66c-2.06.48-4.22,2.29-6.18.46-.19-.19-.39-.33-.6-.46h-4.69c-.83.21-1.6.41-2.23.46-2.14-.7-3.55,3.39-6.1.41-1.68-.46-3.48-.68-5.19-.86h-1.5c-3.12.66-5.86,2.58-9.03,0h-.8c-2.78.93-5.55,1.98-8.33,0h-.44c-2.31,2.46-3.9-.45-5.8.71-1.24.49-2.15,1.26-3.47-.71h-.55c-1.65,1.47-3.57,1.62-5.19.84-.5.41-4.06-.52-5.23-.47-4.55,1.51-9.56-1.41-14.11.53-2.73.09-5.45.82-8.17.7-.65-.71-1.2-1.25-1.71-1.59h-.87c-.57,0-1.12.03-1.67.09-.02.02-.05.02-.07.04-.02-.01-.03-.01-.05-.02-.19.02-.37.06-.55.08-.89.72-1.92,3.57-2.66,1.28-.2-.16-.37-.28-.53-.38v-.08c-3.93,1.48-7.11,4.48-8.82,8.3h2.05c-.54,3.04-2.41,5.36-1.86,8.35-1.1,2.26,3.13,4.69.07,6.98-2.59,1.43-.81,2.94-.04,4.36,1.08,1.83,1.5,3.47,1.03,5.33.08,4.32-2.32,8.78-2.18,13.14,1.21,5.12,4.91,9.26,9.76,11.08v-1.95c.16-.1.33-.21.53-.38.92-2.82,2.26,2.18,3.26,1.34,1.61,1.13,2.59.42,4.32-1.46,2.73-.12,5.44.61,8.17.7,4.55,1.93,9.56-.99,14.11.53,1.17.04,4.74-.88,5.23-.47,1.74-.84,3.82-.63,5.54,1.15,1.43-2.37,2.36-1.54,3.67-1.03,1.94,1.19,3.56-1.92,5.97.9,3.05-2.39,6.1-.98,9.15,0,3.45-3.04,6.38-.61,9.81-.08,1.98-.21,4.15-.42,6.14-.97,2.55-2.98,3.96,1.11,6.1.41,2,.14,5.55,1.98,7.52,0,2.65-2.49,5.68,1.73,8.33.25,2.52-.58,4.33,1.02,6.84-.42,2.09-.53,5.72-1.22,7.67.49.62.12,3.75-1.41,4.4.09.89-.15,3.28.98,4.35.15,3.13,3.03,5.69,1.52,8.72-1.02,5.31.47,9.72,1.9,14.85-.07,2.85.8,4.29.07,7.3-1.67,2.51.34,4.53,1.04,7.19.97,3.17,1.86,9.51,2.04,13.45-.26,3.79,1.42,6.46,1.93,9.79,1.03,1.86-2.95,3.48,3.94,5.03.64,1.79-2.38,3.16-1.64,5.56-.92,3.28-.44,6.36,2.66,9.73.23,4.1-.73,8.26,1.09,12.37-.49,4.46-.76,8.98-.37,13.43-.02,2.71-1.09,5.51,2.22,8.29.18.16.54.67.4,1.11.76,2.03-.31,4.38-1.57,6.47-.05,2.38-1.78,5.07,1.1,7.41-.05,2.19-.28,3.92-2.57,6.02.03,1.33-3.95,2.78-.35,4.12-.12,1.99,1.58,2.71,1.07,4.58-1.82,3.92,1.76,8.03,1.3,11.98,1.82,3.47,1.28,6.19-1.89,9.59-.89,5.84,4.66,12.01-.13,17.87-.05,3.32-.84,6.57-.26,9.81,1.01,3.25,2.05,6.49-2.16,9.82-.94,1.22,1.93,6.46-1.37,11.4-.18,4.95.6,9.6.09,9.65.84-.75.1-.11.23,1.09.32v1.27c5.29-2.2,9.11-7.2,9.63-13.15Z"/>
        <g class="cls-4">
          <g>
            <path class="cls-6" d="M103.74-30.19c-.91.32-2.1.34-2.19,2.11-.09,1.83.71,3.16,1.77,4.04.95.79,2.94.06,2.41,3.05-.49,2.76-1.94,1.58-3.13,1.28-1.1-.28-2.23.08-2.88,1.39-.84,1.72.71,2.18,1.02,3.32.8,2.92,1.48,5.92,2.39,9.65-1.61-.67-2.38-3.7-3.79-.98-1.61,3.1-2.44.89-2.45-1.33,0-2.31-.05-3.86-1.83-4.35-1.11-.3-1.2-1.93-1.29-3.35-.09-1.51-.78-2.12-1.68-2.28-1.02-.18-1.75.82-1.84,2.07-.28,3.96-2.09,3.54-3.92,3.63-2.35.11-4.55-.88-6.81-1.41-2.89-.67-3.28-4.51-3.52-7.79-.17-2.36,1.32-2.3,2.55-1.78.93.39,2.04.68,2.46-.99.47-1.81-.77-2.24-1.52-2.95-1.08-1.02-2.28-1.44-3.58-1.41-1.18.03-2.37-.16-3.12-1.65-1.58-3.12-3.58-3.75-6.11-2.75-1.08.43-2.53-.89-2.26,2.54.15,2.02-1.27,2.98-2.44,2.9-1.6-.11-.77-1.96-.66-3.21.09-1-.02-1.88-.64-2.41-.68-.58-1.21-.13-1.61.73-1.07,2.32-2.62,1.23-3.76.86-2.17-.72-3.41.42-3.63,3.39-.38,5.36-2.77,6.87-5.77,7.78-.98.29-1.55.37-1.96-1.15-.58-2.1-1.97-2.64-3.28-3.14-2.79-1.08-3.31-.21-3.54,4.11-.17,3.21-.06,6.15.83,9.07.66,2.16.74,4.05-.63,6.32-1.15,1.9-1.67,3.64-3.65,2.36-.67-.43-1.78.62-2.7.99-2.69-.55-5.2-.68-7.53,2.52-1.05,1.43-1.36,2.26-1.07,4.2.84,5.47.18,7.69-2.99,10.6-1.83,1.68-3.64,2.16-4.8-1.16-.45-1.3-1.04-1.49-1.89-1.85-2.71-1.15-5.67-1.18-7.36-5.91-.9-2.54-3.74-2.25-5.7-1.96-3.35.49-5.95-1.41-8.29-4.29-2.01-2.47-2.28-6.96-.84-9.2,1.48-2.3,4.3-1.8,5.95,1.73C-1.98-3.62-.71-2.19,1.97-4.67c1.45-1.34,3.46-1.14,5.23-1.44,3.8-.64,3.8-.6,4.42-6.97-1.15.31-1.57,1.98-2.42,2.8-2.41,2.33-4.21,2.29-6.17-.75-2.12-3.3-4.55-4.1-7.63-3.62-4.09.63-7.97-1.57-11.86-3.09-.8-.31-1.32-1.49-1.64-2.66-.57-2.08-1.65-3.03-3.1-3.38-2.09-.52-3.47-2.19-3.42-5.57.05-3.1,1.44-4.36,3.33-4.66,1.98-.32,2.34-4.18,4.12-4.35-.36.15-.93.38-1.5.63-1.8.8-3.4.33-4.41-2.06-1-2.37-.78-5.12.54-6.93,2.59-3.54,2.88-6.83.84-10.98-1.04-2.12-.68-5.04,1.24-5.72,3.33-1.19,4.52-6.41,7.77-7.92-5.16-2-3.68-9.11-5.2-13.71-.37-1.13.37-3.38-.83-3.49-1.21-.11-1.43,1.95-1.68,3.51-.99,6.24-1.84,6.96-5.86,5.03-.49-.24-.95-.8-1.47-.69-4.46.99-6.07-3.44-7.4-8.42-.38-1.44-.65-2.94-1.03-4.39-1.22-4.66-.99-6.11,1.27-7.69,2.66-1.86,4.12-.87,5.53,3.87,2.51-1.91,5.07-3.85,7.68.72.05-3.08-.43-5.85,1.11-7.58,1.7-1.91,3.73-2.22,5.73-1.73,1.49.36,2.79.43,4.21-.83,1.41-1.25,6.14,1.19,7,3.2.44,1.03.47,2.14,0,3.08-.7,1.39-.8,2.85-.6,4.5.05-3.69,1.08-6.23,3.6-7.18,3.26-1.24,5,.88,4.69,5.89-.06.92-.42,2.03.41,2.35.94.36,1.39-.72,1.37-1.92-.17-9.39,3.56-14.55,8.87-18.06.47-.31.93-.79,1.05-2.22-3.79-.72-4.7-6.49-7.34-9.53-.99-1.14-.97-2.94-.15-4.16,1.31-1.97,1.67-6.11,4.35-5.17,1.42.5,2.79.86,4.26.98,2.08.17,3,2.44,3.31,5.86,1.78-4.75,4.59-4.34,7.17-4.31,1.55.02,2.79-.32,4.08-1.73,3.13-3.42,6.47-1.15,9.73-.8.53.06.73,1,.66,1.86-.1.23-.22.44-.32.68.12-.21.25-.4.4-.59,3.18-2.66,7.11.36,7.57,5.84.14,1.71-.06,3.43-.1,5.15-.13,6.63,2.85,9.46,7.14,7.02,3.15-1.79,6.41-4.05,9.07,1.29.54,1.07,1.6.79,2.36.21,2.87-2.21,5.92-1.79,9.25-1.78-.44-2.5-1.23-4.6-1.8-6.78-1.45-5.54.28-9.47,4.28-10,4.16-.55,7.89,1.3,11.33,4.12,2.09,1.72,4.07,3.45,6.41,4.43,1.61.68,2.95,2.25,2.61,5.46-.31,2.96-1.5,3.95-3.59,3.82,1.93,1.02,2.91-.15,3.33-2.42.37-1.99.85-3.66,2.46-3.51,1.45.14,2.24,1.61,2.5,3.57.56,4.17,3.24,3.68,5.06,4.97.75.53,1.45-.9,1.94-2.01q2.7-6.14,7.57-4.46c.81.28,1.67.23,2.48.52,3.3,1.18,4.56,4.11,3.44,8.96-.8,3.45-1.01,5.01,2.13,4.61,3.23-.41,4.9,2.79,4.22,7.47-.57,3.93.47,6.18,2.62,7.79.94.63,1.84,1.44,2.9,1.6,2.95.45,4.94,2.74,5.26,6.74.17,2.08.44,3.15,1.98,2.99,1.36-.14,2.85.31,3.21-2.56.41-3.28,1.16-6.03,3.77-6.59,1-.22,1.05-1.84,1.49-2.87.2-.42.45-.75.74-1.01,1.91-1.13,3.41-.56,4.34,2.24.1.44.14.91.12,1.39-.5,1.76-.68,3.54-.14,5.33-.07.19-.13.37-.2.56-2.8,4.68-3.87,10.5-4.73,16.31-.27,1.8.18,3.86-.12,5.92-.42,2.84.88,4.21,2.53,4.87,1.15.46,2.02,1.57,1.7,3.27-.43,2.27-1.66,1.11-2.61.8q-3.75-1.23-4.23,4.67c-.42,5.2-2.05,6.86-5.83,5.97h0c.23-1.21.52-2.4.67-3.62.15-1.25.16-2.65-.76-3.23-.86-.54-1.34.57-1.74,1.49-1.17,2.68-3.25,3.47-4.89,5.13-2.46,2.51-4.9,4.71-6.18,9.04-.61,2.07-1.71,1.63-2.33-.14-.48-1.35-.98-2.85-1.05-4.34-.19-4.42-1.52-6.7-4.6-7.09-1.56-.19-2.62-1.59-.75-3.97,1.01-1.29,1.51-3.18,1.4-5.07-.21-3.61.72-5.41,3.2-5.14,1.04.12,1.76-.56,1.77-1.98.02-2.79,0-5.49.8-8.18.31-1.05-.36-2.11-1.21-2.19-.93-.09-1.32.79-1.22,2.12.08,1.08.2,2.15.31,3.22.16,1.52-.12,3.24-1.03,3.59-1.44.55-.77-1.45-.91-2.46-.13-.91-.62-1.13-1.17-1.16-.91-.05-1.69.39-2.06,1.72-.56,2.03-1.72,4.34-1.45,6.11.93,6.22-2.3,8.67-4.53,11.99-1.25,1.85-1.58,3.39-.05,4.91,1.57,1.56.99,3.1-.31,3.66-1.96.84-3.96,2.47-6.09,1.08-1.34-1.72-2.27-1.68-3.07,1.14-.57,2.01-1.34,4.33-3.37,3.35Z"/>
            <path d="M30.13-210.79c.53-2.4,1.86-2.63,3.24-2.7,2.95,1.46,3.4,5.99,4.97,9.13.61,1.21.52,2.67-.15,3.91-.83,1.53-1.94,1.74-3.14,1.39-1.35-.39-2.37-1.79-3.7-2.35-2.24-.95-3.77-.09-5.12,2.82-1.31,2.83-1.11,4.66.8,6.46,1.07,1.01,1.27,3,.43,4.55-1.58,2.94-2.63,6.38-4.48,9.12-1.82,2.7-3.29,6-3.99,9.82-.04.44-.13.85-.26,1.25-.72,1.45-2.02,2.75-.65,4.75,1.39,2.87,3.56,4.74,4.58,8.07.47,1.54,1.47,1.59,2.42,1.44,1.15-.18,2.31-.71,3.44-.38,1.89.55,2.79-.38,3.37-3.28.69-3.45,2.77-4.56,4.83-3.3,1.95,1.19,4.07,1.29,5.96,2.56,1.66,1.13,2.15.22,2.38-2.33.53-5.8,1.36-7.05,4.63-8.05,3.38-1.03,4.9-4.46,3.73-9.43-.83-3.54-.71-6.33,1.36-8.77,1.98-2.33,5.89-3.01,7.76-1.35.75.66,1.55,1.64,1.43,2.83-.48,4.63.15,10.01-2.79,13.3-1.84,2.06-2.13,4.18-1.42,6.8.74,2.74,4.13,5.38,5.63,4.82.82-.31.85-1.28.98-2.15.37-2.58,1.54-3.88,3.09-4.95,2.75-1.89,5.36-3.88,5.95-9.25.34-3.1,2.41-4.23,4.42-4.4,2.25-.19,4.28-1.31,6.22-2.93-.1-1.77-1.29-2.19-1.52-3.56-.53-1.98-.99-3.93-1.91-5.7-1.45-2.78-.71-5.65.85-7.99,1.26-1.88,2.69-3.3,4.31-.84-1.05,2.29-.33,4.57,0,6.76.38,2.49,1.64,3.49,3.03,1.75,1.73-2.18,2.98-1.3,4.44.24.74.77,1.66,1.42,2.55,1.57,1,.16,1.9-.79,1.95-2.44.04-1.49-.79-1.59-1.58-1.36-.8.22-1.47.11-1.8-1.16-.25-1-.05-1.89.5-2.5.75-.84,1.59-.71,2.38-.16.84.59,1.21,2.12,2.24,2.35,3.94.88,6.74,1.19,7.16-8.14,1.26-.98,1.42.39,1.42,1.61,0,1.35-.22,2.71-.34,4.06,3.17,1.98,4.95,7.03,8.91,7.68,2.59.42,4.54-1.12,6.51-2.42,3.36-2.23,7.02-3.18,10.21-6.07,1.07-.97,2.21.1,3.32.43,3.11.9,6.19,2.35,8.83-2.61,1.36-2.56,3.56-1.54,4.58.82,1.39,3.23,2.71,3.76,4.76,1.41.42-.48,1.01-.24,1.39.44.24,2.06,1.73,2.9,2.06,5.03.31,2.04,1.07.22,1.59-.14.89-.62,1.81-1.35,2.56.04.89,1.65.14,3.19-.75,3.95-3.23,2.77-2.13,8.99-4.71,12.23-.38.48-.09,1.04.24,1.55,1.43,2.25-.22,2.96-1.07,3.67-1.27,1.06-1.95-.09-2.14-1.93-.1-1.03.09-2.65-.99-2.16-.98.44-.38,1.88-.18,2.81.42,1.94,1.53,3.51.45,6.01-.6,1.4.64,1.89,1.27,1.38,2.02-1.67,4-1.56,6.06-.62.34.15.91-.06,1.18-.42,2.84-3.77,4.74-1.68,6.28,2.05.78,1.89,2.19,1.11,2.87,1.64,2.91,2.27,6.97-2.13,9.19,3.48.52,1.32,1.74.29,2.62-.18.68,3.82-.27,7.72-2.23,9.16-2.94,2.15-7.28,1.94-8.09-.99-1.07-3.87-2.76-2.52-4.22-1.5-4.33,3.04-7.6,1.92-10.4-3.99-1.58-3.34-3.23-3.4-4.65.21-1.02,2.59-2.36,3.05-4.16,3.33-2.97.47-5.84-1.66-8.43-1.32-5.35.69-11.25-1.74-15.96,4.88,1.65-.68,2.98.02,3.59,2.62.25,1.07.6,2.12,1.4,2.26,5.78,1.02,9.78,7.76,15.19,9.98,1.17.48,1.54,2.39,2.61,4.34-.21-3.18-.16-5.65-.16-8.13,0-3.95,1.15-5.14,4.09-4.52,1.48,5.98,1.48,5.92,6.09,4.66.95-.26,1.81-.65,2.64-1.31,5.58-.23,10.69-4.28,16.2-5.07.21-.03.5-.07.59-.28,2.01-4.7,4.51-5.34,7.7-2.85.91.71,1.09-1.46,1.46-2.5.67-1.82.84-4.42,2.88-4.1.38,1.26.76,2.52,1.14,3.79,1.74,1.4,3.92.34,5.6,2.06.64.96.21,1.88-.09,2.81-1.18,6.38-2.54,7.88-6.89,7.82-1.45-.02-3.11-.19-3.47,2.82-.28,2.39-.97,4.38-2.65,4.63-2.07.31-1.85-2.71-2.45-4.5-.21-1.93-1.02-1.51-1.86-.99-1.96-1.11-3.89-1.67-5.69.75-1.8.47-4.17-1.67-5.12,2.65.61,1.7.37,3.05-.95,3.54-1.8.67-3.74,1.66-4.77-1.84-1.91-1.8-2.24.29-2.61,2.38-.67,3.72-1.92,6.69-4.64,7.71-2.18,2.56-4.16-1.02-6.29-.2-.84-.02-1.68-.05-2.52-.07-.75.68-1.57.41-2.02-.37-3.05-5.29-5.97-2.98-8.94.55.92.5,1.54-.97,2.43-.75,1.67.43,3.44.83,4.21,3.27.81,2.53-.72,4.05-1.82,5.39-1.9,2.31-2.97,5.76-5.01,7.84-2.45,2.22-3.69,6.48-3.03,10.74.39,2.5,1.02,4.94.49,7.6-3.1-1.94-4.06-4.65-3.37-9.56.54-3.86-1.42-6.28-4.25-5.2-1.16.44-2.38,2.14-3.41.06-.8-1.62-.02-3.24.44-4.83,2.05-6.92,1.47-8.36-3.6-9.06-.83-.11-1.77.12-2.39-.81-2.14-3.23-3.08-.53-3.85,1.95-2.02,6.54-2.3,6.74-6.52,3.63-.53-.39-1.2-.48-1.81-.53-1.71-.14-3.09-.41-1.72-3.79.64-1.57-.02-2.76-1.01-3.26-.92-.46-1.72.28-2.01,1.59-.52,2.36-.58,5.43-2.75,5.6-2.29.18-2.77-3.12-3.96-5.5,1.47-.83,2.28.85,3.32,1.09.88.2,1.71.15,2.2-1.17.51-1.36,0-2.39-.62-3.28-.3-.42-.64-.94-1.02-1.02-4.72-1.07-8.11-6.4-12.53-8.22-2.1-.86-4.52-.68-6.75-.28-2.13.39-2.73,3.44-1.72,6.46.77,2.32,1.07,4.95,2.24,7.04.87,1.56.3,3.48-.51,4.68-.92,1.36-1.3-.85-1.96-1.11-2.02-.8-4.25-1.1-6.16.16-2.78,1.83-4.87,3.62-7.06-1.69-1.36-3.3-4.39-.18-5.82,1.22-3.28,3.22-5.86.44-8.22-1.1-2.18-1.43-1.19-5.92-1.08-9.03.26-7.39-1.48-10.03-6.53-9.2h0c-2.45-2.32-8.25-1.74-10.29,1.12-.86,1.21-1.48,2.31-2.95,1.47-3.23-1.84-5.45-.39-7.15,4.26-.49,1.35-1.05,1.97-2,1.44-.84-.47-.83-1.47-.72-2.69.5-5.63.25-5.89-3.5-4.24-.29.13-.81.37-.88.21-2.94-6.62-3.27.9-4.76,2.1-.18.14-.33.39-.47.62-.06.1-.07.28-.19.81,1.82.35,2.49,2.7,3.49,4.56,1.03,1.91,1.21,5.77,4.09,3.52.71-.56,1.33,1.21,1.58,2.4.38,1.77-.22,3.11-1.2,3.95-1.74,1.49-3.47,2.95-5.16,4.61-2.91,2.86-4.78,7.46-3.86,12.41.47,2.52-.47,3.08-1.4,3.95-.97.91-2.08,2.06-3.14.5-.83-1.22-1.36-2.8-.63-4.62.5-1.26,1.76-2.44.42-3.9-1.6-1.74-3.27-.46-4.73.63-.98.73-1.33,2.43-.86,4.1.31,1.12,1.67,1.86.48,3.48-.65.89-1.34.61-2.06.23-1.25-.66-1.22-2.17-1.29-3.79-.1-2.35.76-4.13,1.61-6.17-1.5-1.4-3.73-.48-4.6-3.33-.05-.15-.51-.23-.56-.12-2.42,5.26-5.76,1.12-8.61,2.11-2,.69-3.22,1.42-2.43,4.83.1.43.14.94.09,1.38-.19,1.72.57,4.25-1.09,4.81-1.36.46-1.53-1.9-2.15-3.28-1.8-4.03-3.6-.18-5.33.65-.91.44-1.11,2.65-2.25,3-.77-.69-.46-1.66-.32-2.52.29-1.78,1.12-3.89-.24-5.09-1.13-1-2.42.46-3.6.99-.62.28-1.32,1.14-.79,2.07,1.99,3.53,1.86,8.5,3.73,12.13.92,1.78,1.76,3.11,3.33,2.21,1.65-.94,2.79.66,4.11,1.39,1.81.99,3.13.78,2.96-2.85-.16-3.36.92-5.76,2.8-7.36,1.12-.95,2.98-.73,2.6,1.23-1.15,5.88,1.97,10.34,1.28,16.52,1.75-1.7,3.22-2.99,3.96.51.7,3.29-.53,4.7-2.39,5.36-1.12.4-1.99,1.09-2.44,2.68-.7,2.49-1.48,4.6-3.7,3.2-.46-.29-1.05.09-1.31.93-.37,1.16-.06,2.06.43,2.97,2.73,5.06,2.6,7.5-.77,12.01-1.12,1.5-1.39,3.25-.95,5.07.53,2.16,1.8,2.2,3.15,1.68,1.12-.43,2.28-.6,3.11-2.08.46-.82,1.01-1.98,1.78-.85.41.59.68,1.57.77,2.43.11,1.06-.44,1.82-1.11,1.95-2.06.41-3.47,1.89-4.34,4.8-.41,1.37-1.42,1.87-2.45,1.39-1.3-.6-2.03,0-2.12,2.11-.08,1.92.25,3.61,1.69,3.74,2.61.23,4.51,1.22,5.26,5.62.37,2.14,2.54,2.08,3.87,2.02,1.76-.07,3.28.19,4.75,1.55,1.05.97,2.14.68,3.32.12,3.03-1.46,6.82.39,8.6,4,1.48,3.02,4.4,2.63,5.6-.92.63-1.88.95-4.33,2.78-3.01,1.6,1.16.98,3.24.77,5.58-.52,5.63-1.75,7.75-5.92,7.09-2.19-.35-5.56-1.06-7.22,3.86-.55,1.62-1.51.25-2-.67-.97-1.79-1.78-3.78-2.75-5.57-.98-1.81-2.42-3.14-3.77-1.4-1.27,1.64-.81,4.14.12,5.95C-7.02,1.01-4.78,2.56-2.79,2.87c2.09.33,4.35,1.43,6.27.82,2.23-.71,2.6.26,3.18,2.84.93,4.16,3.91,3.45,6.04,4.58.93.49,2.15.02,2.57,1.82.55,2.36,1.5,3.48,3.06,2.04,1.77-1.62,3.89-3.12,3.27-7.14-.23-1.5-.87-2.91-.93-4.41-.08-1.98-1.34-5.85,2.1-3.97.41.22.88.17,1.11-.47,2.29-6.38,4.72-2.93,7.14-.53-.01.31-.02.63-.03.94-.69,2.12-.06,4.58-.87,6.67-.18.37-.4.66-.65.91-2.49,1.2-3.51,4.9-5.38,7.18-3.33,4.04-6.12,6.36-10.72,2.96-3.36-2.48-7.1-3.84-10.04-7.67-.89-1.16-2.15-.93-3.24.16-3.88,3.87-7.93.69-10.14-4.43-.62-1.43-1.23-2.84-1.99-4.1-.78-1.29-1.42-.82-2.1.26-.75,1.19-.2,1.95.32,2.74.29.43.59,1.09.99,1.06,2.97-.21,4.38,3.76,6.71,5.24,1.91,1.2,2.12,3.64,1.66,6.26-.44,2.51-1.6,3.87-3.42,4.19-1.74.3-3.19-.86-4.79-1.41.76,1.1,1.79,1.3,2.74,1.53,3.75.9,5.03,2.62,5.26,8.33.12,3.06.69,3.52,2.81,3.56,3.63.06,6.91-2.16,10.41-2.63,1.16-.15,2.19-.92,2.89-2.57.8-1.87,1.88-3.43,3.08-4.76,1.58-1.76,3.54-2.14,4.37.52,1.79,5.75,5.61,7.79,8.55,11.41,2.9,3.57,3.79,8.25,3.85,13.54.02,1.98-.61,3.62-1.75,4.78-.44.45-1.05.63-1.33,1.27-.67,1.52-2.17,3.47-1.29,4.79.99,1.47,2.97,1.38,4.46.72,1.11-.49.46-2.05.13-3.17-1.55-5.37-1.13-6.01,2.63-7.23,3.42-1.11,6.81-1.98,10.29-2.27,1.67-.14,3.69-5.24,3.61-8.45-.21-8.35-1.71-16.01-4.64-23.09-1.01-2.45-1.65-5.34-.71-8.4,1.65.98,3.33,1.04,5.04.16.26.4.5.82.78,1.18-.28-.36-.52-.78-.78-1.18.06-.3.06-.68.19-.88.46-.73,7.6-.07,7.92.72.71,1.8-.22,1.95-1.05,2.41-4.84,2.64-5.52,4.94-3.66,11.7,1.03,3.74.09,7.67.21,11.51.2.32.2.63-.03.93-1.07,3.28.35,3.59,1.8,2.88,1.9-.93,3.96-1.67,5.63-2.77,2.21-1.45,3.17-.45,4.49,1.21.19.33.29.72.28,1.16-.81,2.67-2.38,2.01-3.8,2.05-1.66.04-3.43-.27-4.17,2.87-.48,1.06-1.31,1.48-2.09,2.22,1.12.87,1.93-.07,2.79-.49,1.06-.51,2.17-.69,2.76,1.01.67,1.94.19,3.78-.98,4.92-1.69,1.64-3.55,2.78-5.61,2.84-.84.03-1.69-.05-2.51.25-2.34.87-2.52,3.21-1.72,6.36,1.25,4.88,2.22,8.54,6.46,4.92.92-.78,2.02,1.17,1.96,3.24-.03,1.2-.64,2.43-.06,3.4-.47-2.21.02-4.16,1.52-5.34,1.3-1.03,2.43-.19,3.39,1.2,1.02,1.47,1.27,3.49,1.71,5.38,1.47,6.29,5.44,7.95,9.21,3.92,1.29-1.38,2.43-3.06,3.83-4.22,4.58-1.67,9.9,1.79,11.71,7.65.61,1.98,1.41,2.8,2.56.88,1.86-3.09,4.2-2.6,6.47-2.26,2.02.3,2.67,2.43,1.38,4.97-1.05,2.06-1.41,4.16-1.5,6.52-.17,4.49-2.75,7.47-5.31,3.31,2.38,5,5.46,8.46,9.73,9.14.8.13,1.8.36,2.05-1.37.22-1.54-.26-2.5-1.19-3.37-3.25-3.03-4.17-7.97-2.58-13.08.23-.74.54-1.37,1.06-1.67,4.14-2.36,8.27-4.08,12.31,0,.86.87,1.84,1.43,2.8,2.01,4.92,2.98,5.37,4.4,3.7,11.89-1.76,3.9-4.71,1.42-6.58,3.01,1.66-.76,3.66-.74,5.67-.66,4.18.19,5.46,5.39,7.08,9.56,1.81,4.67,2.64,4.94,5.12.24.15-.43.36-.8.62-1.1,3.61-3.04,6.62-.82,6.97,5.11-3.63-.49-6,4.12-9.24,5.38-4.1,1.59-4.06,1.79-4.96-4.14-.27-1.76-1.23-2.82-2.05-3.95-1.63-2.26-1.71.67-2.34,1.74-.39.67-.91.57-1.44.57-1.77,0-3.17,1.3-4.49,2.98-1.96,2.51-3.69,5.71-6.84,4.25-1.15-.53-1.91,1.71-2.96,2.41-2.42.86-4.2,3.59-6.42,5.03-.38.25-.74.84-1.12.86-4.03.2-7.31,2.89-10.34,6.73-.89,1.13-2.21,2.59-3.3.52-.99-1.87-2.3-3.8-1.15-6.63.98-2.41,1.2-4.44-1.01-5.39-1.86-1.41-1.09-3.24-.14-4.82.83-1.38,1.85-2.55,3.02-2.58-2.16-1.48-3.33,1.91-5.03,3.05-1.64,1.11-1.6,1.26-2.75-.49.54-6.47,2.96-11.98,4.33-18.03.59-2.6,1.27-2.09,2.13-.7,1.08,1.75,2.86,2.68,2.95,5.65.02.77.36,1.48,1.02,1.35.53-.11.57-.83.67-1.43.83-5-1.02-9-2.17-13.2-.43-1.58-1.35-.52-2.09.24-1.77,1.8-3.25,4.04-4.58,6.48-1.28,2.37-2.49,3.39-4.02.7-.19-.34-.48-.58-.76-.8-1.12-.88-2.42-1.84-3.51-.54-.88,1.04-.5,3.08-.13,4.39,1.27,4.49-.36,5.02-2.58,4.12-2.35-.95-4.73-.05-7.11-.55-2.67-.57-3.45,4.03-4.62,6.75-1.01,2.34-1.59,4.86-3.87,4.37-2.39-.51-4.79-.73-4.7-5.93.04-2.54.06-5.56-2.48-7.03,1.25-.68,1.93-1.02,2.6-1.42.83-.5,2.13-.5,2.01-2.39-.13-2.05-1.33-2.71-2.55-2.61-3.09.25-6.21.56-7.23,6.47-1.26-.69-.69-2.78-1.76-3.57-1.26-.93-1.76-8.41-3.57-.21-.39,1.77-1.98.72-2.84.26-1.09-.57-.04-1.34.25-1.96.34-.71.54-1.5-.06-1.97-.3-.24-.85-.17-1.17.09-1.01.83-2.12,1.64-1.98,3.82.04.71.42,1.6-.2,2.08-.7.54-2.64-.95-1.71,2.12.78,2.56,3.08,4.55,4.24,3.68,4.54-3.4,6.93,1.5,9.93,4.25.17.16.3.42.45.64h0c-.24.92-.48,1.85-.72,2.78,2.88,4.91,2.22,8.65-2.3,13.06-1.31,2.16-2.6,3.38-4.87,3.28-2.02-.09-5.05-.11-5.49,4.97-.11,1.29-.33,2.73-1.52,2.14-.94-.46-1.62-1.5-1.14-3.23.25-.89.64-1.78-.1-2.42-.75-.64-1.42-.07-1.99.73-.62.86-1.14,1.91-1.83,2.61-1.62,1.68-3.1,4.26-5.26.88-.69-1.08-2.4-2.17-3.73-.36-.71.97-.66,2.21-.41,3.48.47,2.33,1.6,2.67,3.1,2.95,2.05.39,4.19-1.21,6.16.46.65.55,1.41,1.08,1.1,2.4-.31,1.32-1.02.68-1.57.33-.86-.55-1.56-.79-1.98.97-1.26,5.22-3.45,3.38-5.48,1.59-.77-.67-1.26-2.24-2.36-.92-.84,1-1.16,2.21-.65,3.71.23.69.52,1.52-.1,2.05-.68.58-1.25-.06-1.57-.86-.73-1.84-.88-3.93-3.03-4.25-1.26-.18-.56-3.24.31-4.63.53-.84,1.47-1.14,2.24-1.64,1.82-1.19,3.24-2.01.63-4.81-1.7-1.83-2.96-4.66-4.82-6.41-1.46-1.37-2.55-1.35-2.93,1.67-.37,2.94-1.42,5.24-3.52,4.99-2.19-.26-2.28-3.1-2.14-5.71.14-2.6-.57-3.56-2.21-2.52-1.58.99-2.85.5-3.89-1.32-.75,1.08-.18,6.17-2.42,1.72-.23-.45-.71-.92-1.05-.88-4.58.54-7.65-3.55-11.02-7.11-2.72-2.87-4.41-6.8-3.98-11.77.18-2.01.4-4.08-.77-5.67-.4-.53-.86-1.44-.49-1.99,2.65-3.93.13-4.71-1.5-6.04-.79-.64-1.12-1.76-1.43-2.92-.23-.84-.38-2.25-1.03-2.08-3,.78-3.8-2.92-5.27-5.29-4.8-1.35-5.66-3.99-3.76-11.03,1.46-5.41,3.26-10.22,7.38-12.03,1.09-.48,1.43-2.24,2.1-3.44,1.19-2.13,2.64-3.29,4.45-2.13,1.69,1.08,2.73,2.9,2.08,5.89-.33,1.52-.17,2.46.95,2.64,4.2.68,5.45,6.04,7.36,10.29.57,1.27.91,2.62,2.01,3.28,2.42,1.46,3.44,4.49,3.18,8.22-.38,5.42,1.94,9.73,2.24,14.87.11,1.85,1.4,2.46,2.39,1,3.6-5.28,7.69-4.38,11.8-2.64,2.44,1.03,4.96.18,7.55.71-1.47-1.9-3.32-3.27-3.37-6.67-.05-3.26,1.13-5.62,2.51-7.88.9-1.46.42-3.32.71-4.95.57-3.22,1.41-3.75,3.53-2.14-1.11-1.99-3.19-1.58-4.14-3.9-.92-2.26-2.51-3.07-4.12-3.82-1.4-.66-2.33-2.2-2.49-4.35-.26-3.36-1.28-3.17-2.99-1.92-2.26,1.65-4.55,1.71-6.3-1.34-1.67-2.88-3.18-5.93-1.17-9.96.49-.98.68-1.96.13-2.99-.61-1.13-1.34-.29-2.03-.2-2.57.35-5.03,2.69-7.7,1.32-.19-.14-.45-.3-.48-.55-.85-6.29-4.67-7.76-7.77-10.13-1.58-1.2-2.6-2.44-2.65-5.05-.05-2.54.97-3.75,2.52-4.78,2.4-1.6,2.91-5.13,3.32-8.6.17-1.41-.43-1.94-1.06-2.51-.79-.73-1.52-1.57-2.19-2.56-1.31-1.94-2.66-4.16-1.42-6.88,1.17-2.56,3.15-2.84,5.07-1.66.37.23.71.64,1.41.4-.63-2.61-2.09-4.67-1.72-7.92.32-2.78.14-5.58,1.62-7.85.57-.87.67-1.99.12-2.97-.51-.91-1.13-.48-1.71-.06-2.36,1.67-3.91.12-4.83-2.88-1.23-4-3.93-3.47-6.09-4.42-1.19-.52-.99,1.26-1,2.57,0,3.8-1.2,5.51-3.73,5.04-2.49-.46-4.94-1.29-6.65-4.45-.84-1.55-1.73-3.04-3.43-2.2-.96.47-1.86-.44-2.52-1.43-1.32-1.99-3.04-1.98-4.68-1.85-2.91.22-3.44,1.47-2.65,5.63.87,4.59-1.19,8.39-1.82,12.54-.34,2.23-3.03,2.1-4.56-.28-1.16-1.82-2.39-2.56-4.08-2.73-3.16-.31-4.05-3.26-2.38-7.33.45-1.09.74-2.26,1.09-3.4,1.24-2.78.46-4.36-1.36-5.27-.88-.44-1.84-.57-2.65-1.32-.82-.77-1.55-1.67-1.41-3.31.12-1.42.78-2.13,1.69-2.47,1.04-.39,1.82-1.59,2.8-2.22,2.82-1.82,3.79-4.7,2.98-9.08-.5-2.71-1.08-5.37-.61-8.25.64-3.93,2.17-4.75,4.29-2.43,3.33,3.66,6.85,6.86,10.86,8.74.7.33,1.59.66,1.86,1.57,1.46,5.07,3.63,3.16,5.99,1.53,2.42-1.67,4.97-.5,7.46-.37,1.07.06,2.27.33,2.84-1.26.61-1.68-.73-2.29-1.24-3.33-.49-1-1.21-1.86-1.4-3.03-1.03-6.28-4.32-6.49-7.77-6.56-1.16-.02-1.62.87-2.22,2.11-1.95,4-5.43,5.37-8.02,2.81-1.93-1.9-4.2-2.7-6.1-4.56-1.07-1.06-2.15-.68-3.32-.31-2.97.95-4.24-.18-4.54-4.48-.17-2.43-.66-4.04-2.13-5.12-1.06-.78-1.86-2.06-1.59-4.1.25-1.93,1.35-2.23,2.38-2.64,2.53-1,4.56-3.94,7.38-4.03,1.93-.06,3.94-.27,5.52,1.07,3.78,3.2,7.94,2.06,11.95,2.64.97.14,2.02.24,2.2-1.73.16-1.82-.53-2.93-1.67-3.4-1.02-.42-2.07-.38-3.12-.42-2.62-.08-5.22-.08-7.59-2.18-1.43-1.27-2.75-.63-3.86,1.46-1.1,2.07-2.58,2.93-4.16,1.34-1.57-1.57-2.16-4.14-1.31-6.56,1.01-2.88,1.84-6.74,4.96-5.93,1.78.47,1.49-1.75,1.65-3.05.3-2.34-.46-5.27,1.67-6.49,2.34-1.34,4.97-3.23,7.15-.77,2.48,2.8,4.78.44,7.15.31,1-.06,1.27-1.54,1.26-2.86-.04-3.98,1.44-6.06,3.89-6.93,1-.36,1.88-.67,1.46-2.73-.8-3.86.8-6.13,2.85-7.35,2.31-1.38,4.5-3.34,6.95-4.01,1.5-.41,1.53-1.69.91-2.93-.85-1.7-1.54-4.23-2.66-4.87-3.65-2.11-3.49-5.76-2.38-10.2,1.25-1.83,2.63-3.29,4.47-2.68,1.64.54,1.63-1.11,1.84-2.7.84-6.26-1.44-10.71-3.85-14.9-1.22-2.12-1.43-3.99-.49-6.29,1.43-3.52,3.78-3.69,4.73.01.99,3.83,2.8,4.49,5.14,4.47,3.5-.03,6.89.66,9.92,3.39,1.33,1.2,2.54,2.75,1.65,5.23-.87,2.42-2.42,1.69-3.55.5-1.25-1.32-2.28-.9-3.46.14-.98.87-2.05,1.51-3.33,1.46,3.53,1.79,6.99,2.32,10.61,1.89,2.88-.34,4.77,2.25,5.51,6.68.26,1.53.78,1.69,1.57,1.22.82-.48,1.36-1.43,1.68-2.68,1.56-6,2.88-6.45,5.83-1.54,1.21,2.02,2.12,3.16,3.74.95.46-.63,1.15-.91,1.78-.88,3.04.15,3.61-2.79,3.7-6.36-.35-1.01-.76-1.6-1.67-1.6-2.98.02-4.73-3.24-3.49-7.01.84-2.54.23-4.03-.46-5.94-1.59-4.42-.65-7.13,2.69-7.92,3.19-.76,4.31-2.25,4.84-7.04.21-1.87.75-3.01,1.77-4.14,2.14-2.35,2.95-5.3,2.07-9.38-1.45-6.75.82-12.92,5.43-15.68.61-.36.99-1.15,1.41-1.85.46-.67,1.25-.81,1.42-1.96Z"/>
            <path d="M29.52,5.91c-.07-1.67-.11-3.35-.22-5.02-.16-2.4.67-2.17,1.69-1.51,0,0,0,0,0,0,.21.33.44.96.64.92,4.46-.78,6.75,5.34,10.45,6.93.21,0,.42.02.63.03,1.01,6.91,3.92,12.58,5.49,19.22,1.04,4.4.55,8.68,1.39,12.87.9,4.56-3.55,10.87-6.66,9.66-3.08-1.21-2.05,2.55-2.94,5.2-1.17-5.01-2.82-6.44-5.16-2.22-.06.11-.18.19-.27.22-2.56.76-2.54.77-1.24,4.74.45,1.36,1.09,2.84.22,4.34-.84,1.46-1.92,1.78-3.15,1.15-.86-.44-1.71-1.25-2.71-.54-1.09.78-2.14.65-2.75-.9-.52-1.3-.23-2.78.44-3.93,1.15-1.97.72-6.18,3.7-5.65.63.11.8-1.26.95-2.2.72-4.55-.9-10-3.56-12.86-1.82-1.95-3.35-4.25-5.71-5.2-1.78-.72-1.46-4.51-2.63-6.53-.8-1.39-1.6-2.66-2.39-.74-2.74,6.63-7.27,8.32-11.7,10.48-.84.41-1.63.83-2.43.42-1.46-.75-2.79-.48-4.27.28-2.49,1.27-3.66-.4-3.34-4.33.45-5.58-.96-8.03-4.76-8.31-1.88-.14-3.9.18-4.31-3.74-.22-2.05-.03-3.08,1.58-2.4,1.21.51,2.26,1.46,3.38,2.19,1.3.85,3.18,1.7,4.21-.89,1.02-2.56.76-5.15-.99-6.97-.34-.35-.71-.63-1.07-.95-3.1-2.82-7.4-2.01-9.73-7.55.16-.94,1.28-.4,1.93-1.11,1.15-1.27,1.72-4.76,3.22-3.89,1.76,1.01,2.73,4.08,3.59,6.66C-6.9,10.18-4.38,11.52-.42,7.54c2.15-2.16,3.8-1.19,5.34.79,2.38,3.06,4.43,6.85,8.22,5.38.35-.13.98.56,1.26,1.13,2.15,4.44,4.61,2.73,6.79.18,1.72-2.01,3.64-3.85,4.76-6.87.79-2.13,2.15-2.36,3.57-2.23,1.31,2.01,1.65,4.24.49,6.72-2.78,5.94-2.24,12.04-.07,17.55,1.34,3.41,2.27,6.86,2.8,10.64.23,1.62.95,2.67,1.57,4-.63-6.97,2.24-14.76.4-20.39-1.98-6.07-2.12-13.3-5.2-18.52Z"/>
          </g>
        </g>
        <path class="cls-5" d="M309.78-46.07c2.79.62,5.57,1.64,8.29,1.64.05,0,.1,0,.15,0,1.07.27,2.14.4,3.2.4,2.22,0,4.42-.54,6.62-1.4.66-.41,1.31-.57,1.97-.57,2.17,0,4.34,1.74,6.55,1.74.43,0,.87-.07,1.3-.23.29-.46.8-.62,1.48-.62,1.74,0,4.56,1.07,7.54,1.07.79,0,1.59-.08,2.39-.27,4.95-.6,9.6-.09,9.65-.84-.38-.05-.4-.11-.17-.17,4.29,1.36,7.76,4.52,9.58,8.58h-1.55c.54,3.04,2.41,5.36,1.86,8.35,1.1,2.26-3.13,4.69-.07,6.98.58.32.94.65,1.14.98v1.56c-.28.61-.78,1.22-1.1,1.82-1.08,1.83-1.5,3.47-1.03,5.33-.07,3.59,1.57,7.26,2.06,10.9-.52,5.95-4.34,10.95-9.63,13.15v-1.27c-1.2-.09-1.84-.22-1.09-.32-.04-.75-4.7-.24-9.65-.84-.79-.19-1.6-.27-2.39-.27-2.97,0-5.8,1.07-7.54,1.07-.68,0-1.19-.16-1.48-.62-.44-.16-.87-.23-1.3-.23-2.21,0-4.38,1.74-6.55,1.74-.66,0-1.31-.16-1.97-.57-2.2-.86-4.4-1.4-6.62-1.4-1.06,0-2.12.12-3.2.4-.05,0-.1,0-.14,0-3.89,0-7.92,2.1-11.89,2.1-1.96,0-3.92-.51-5.83-2.04-.48-.14-.94-.2-1.4-.2-2.22,0-4.22,1.39-6.45,1.39-.56,0-1.14-.09-1.73-.31-3.96-.53-8.06-.06-11.98-1.82-1.18,1.83-1.9,2.7-2.77,2.7-.51,0-1.07-.3-1.8-.88-.87-.15-1.79-1.72-2.68-1.72-.48,0-.96.46-1.43,1.84-.74-.92-1.44-1.23-2.13-1.23-1.25,0-2.48,1.02-3.89,1.2-.41.2-.83.28-1.26.28-1.41,0-2.89-.83-4.33-.83-.62,0-1.23.15-1.82.6-.75-.55-1.54-.73-2.33-.73-1.41,0-2.84.59-4.13.78-.44-.36-.94-.22-1.11-.76-.68.5-1.37.68-2.05.68-1.69,0-3.37-1.09-5.03-1.09-.4,0-.81.06-1.21.23-2.56-.2-5.15-.42-7.73-.42-1.9,0-3.81.12-5.7.44-1.33.52-2.67.67-4.01.67-2.04,0-4.08-.36-6.11-.36-.75,0-1.5.05-2.24.18-.97.7-1.91.94-2.85.94-2.09,0-4.12-1.21-6.22-1.21-.22,0-.44.01-.67.04-1.17-.35-2.09-.71-2.94-.71-.9,0-1.71.4-2.63,1.62-.31.66-.63.91-.95.91-.97,0-1.98-2.31-3.07-2.31-.33,0-.66.21-1.01.75-1.13.3-2.18.45-3.23.45-2.04,0-4.06-.54-6.56-1.48-1.99,1.16-4.58,1.69-7.07,1.69s-4.8-.51-6.38-1.43c-.12,0-.24,0-.36,0-2.48,0-4.43-.65-6.83-.97-2.18,1.27-3.54,2-5.21,2-.63,0-1.31-.1-2.09-.33-1.97.76-3.83,1.01-5.68,1.01-2.97,0-5.9-.66-9.17-.94-1.84,1.54-3.5,2.7-5.23,2.7-1.12,0-2.26-.49-3.49-1.68-.29.23-.68.31-1.11.31-1.05,0-2.34-.47-3.05-.47-.07,0-.13,0-.19.01-.22-.5-.71-.67-1.29-.67-1.1,0-2.51.58-3.02.58-.03,0-.06,0-.08,0-.93-.82-2.24-1.09-3.59-1.09-1.47,0-2.99.32-4.08.6-.83.48-1.59.62-2.32.62-1.1,0-2.15-.33-3.32-.33-.39,0-.79.04-1.21.13-.41.23-.84.32-1.27.32-1.66,0-3.42-1.38-5.11-1.38-.66,0-1.32.21-1.95.81-.68.68-1.54.91-2.47.91-1.76,0-3.74-.82-5.05-.91-.17.06-.34.08-.51.08-1.31,0-2.39-1.59-3.72-1.59-.57,0-1.18.29-1.87,1.1-1.98.55-4.15.75-6.14.97-2.16-.33-4.12-1.42-6.14-1.42-1.19,0-2.39.38-3.67,1.5-1.81-.58-3.62-1.32-5.43-1.32-1.24,0-2.48.34-3.72,1.32-.8-.94-1.52-1.22-2.19-1.22-.99,0-1.87.61-2.79.61-.33,0-.65-.08-.99-.28-.63-.25-1.18-.57-1.73-.57-.6,0-1.2.37-1.94,1.59-1.09-1.13-2.32-1.63-3.52-1.63-.69,0-1.38.17-2.02.48-.09-.07-.28-.1-.54-.1-1.14,0-3.58.58-4.61.58-.03,0-.06,0-.09,0-1.01-.34-2.05-.45-3.1-.45-2.4,0-4.87.61-7.28.61-1.27,0-2.52-.17-3.74-.69-2.53-.09-5.04-.72-7.56-.72-.2,0-.41,0-.61.01-1.17,1.27-1.99,2.01-2.9,2.01-.44,0-.9-.17-1.42-.54-.08.07-.16.1-.24.1-.73,0-1.6-2.31-2.35-2.31-.24,0-.47.24-.67.87-.2.16-.37.28-.53.38v1.95C7.4,10.66,3.7,6.52,2.49,1.41c-.14-4.36,2.27-8.82,2.18-13.14.48-1.86.06-3.5-1.03-5.33-.77-1.42-2.55-2.93.04-4.36,3.06-2.29-1.17-4.72-.07-6.98-.55-2.99,1.32-5.31,1.86-8.35h-2.05c1.71-3.82,4.89-6.82,8.82-8.3v.08c.16.1.33.21.53.38.21.63.43.87.67.87.63,0,1.34-1.63,1.99-2.15.18-.03.37-.06.55-.08.02.01.03,0,.05.02.02-.02.05-.02.07-.04.55-.06,1.11-.09,1.67-.09h.87c.51.34,1.06.88,1.71,1.59.2,0,.41.01.61.01,2.52,0,5.04-.63,7.56-.72,1.22-.52,2.47-.69,3.74-.69,2.41,0,4.88.61,7.28.61,1.05,0,2.08-.12,3.1-.45.03,0,.06,0,.09,0,1.02,0,3.47.58,4.61.58.26,0,.45-.03.54-.1.63.31,1.31.47,1.99.47,1.08,0,2.19-.41,3.2-1.31h.55c.65.97,1.2,1.28,1.74,1.28s1.1-.32,1.73-.56c.34-.21.67-.28,1-.28.91,0,1.8.6,2.78.6.62,0,1.28-.24,2.02-1.02h.44c1.16.83,2.31,1.12,3.47,1.12,1.62,0,3.24-.58,4.86-1.12h.8c1.2.97,2.33,1.31,3.45,1.31,1.84,0,3.64-.9,5.58-1.31h1.5c1.72.19,3.52.4,5.19.86.7.82,1.31,1.1,1.87,1.1,1.33,0,2.4-1.59,3.72-1.59.17,0,.33.03.51.08.62-.04,1.4-.25,2.23-.46h4.69c.21.12.42.27.6.46.63.59,1.28.81,1.95.81,1.39,0,2.83-.94,4.23-1.26h1.66c.16.05.33.12.49.21.42.1.82.13,1.21.13,1.17,0,2.21-.33,3.32-.33.73,0,1.48.14,2.32.62,1.09.28,2.61.6,4.08.6,1.35,0,2.66-.27,3.59-1.09.02,0,.05,0,.08,0,.51,0,1.92.58,3.02.58.58,0,1.07-.16,1.29-.67.05,0,.11.01.17.01.17,0,.37-.03.58-.07h11.16c.38.29.76.59,1.15.92,2.94-.26,5.6-.81,8.26-.92h1.76c1.57.07,3.17.35,4.84.99.78-.22,1.46-.33,2.09-.33,1.67,0,3.02.73,5.21,2,2.4-.32,4.34-.97,6.83-.97.12,0,.24,0,.36,0,1.57-.92,3.92-1.43,6.37-1.43,2.49,0,5.09.53,7.07,1.69,2.51-.94,4.52-1.48,6.56-1.48,1.05,0,2.1.14,3.23.45.34.54.68.75,1.01.75.71,0,1.39-.98,2.04-1.67h1.84c.05.08.09.17.14.27.92,1.22,1.73,1.62,2.63,1.62.85,0,1.77-.35,2.94-.71.22.03.44.04.67.04,2.1,0,4.13-1.21,6.22-1.21.93,0,1.88.24,2.85.94.75.13,1.49.18,2.24.18,2.03,0,4.08-.36,6.11-.36,1.34,0,2.68.16,4.01.67,1.89.32,3.79.44,5.7.44,2.58,0,5.17-.21,7.73-.42.4.16.8.23,1.21.23,1.66,0,3.34-1.09,5.03-1.09.68,0,1.37.18,2.05.68.16-.54.67-.4,1.11-.76,1.3.2,2.72.78,4.13.78.79,0,1.58-.19,2.33-.74.59.44,1.2.6,1.82.6,1.44,0,2.92-.83,4.33-.83.43,0,.85.08,1.26.28,1.41.18,2.64,1.2,3.89,1.2.69,0,1.39-.31,2.13-1.23.47,1.38.95,1.84,1.43,1.84.9,0,1.81-1.57,2.68-1.72.41-.33.77-.56,1.09-.7h1.36c.62.34,1.25,1.16,2.13,2.52,3.92-1.76,8.03-1.3,11.98-1.82.6-.22,1.17-.31,1.73-.31,2.23,0,4.23,1.39,6.45,1.39.46,0,.92-.06,1.4-.2.95-.76,1.92-1.27,2.88-1.59h6.55M309.78-46.99h-6.55c-.1,0-.19.02-.29.05-1.08.36-2.07.89-3.02,1.62-.32.08-.64.12-.98.12-.96,0-1.92-.32-2.93-.65-1.11-.37-2.26-.74-3.52-.74-.68,0-1.32.11-1.95.33-1.15.15-2.31.21-3.53.28-2.59.14-5.25.29-7.89,1.3-.74-1.1-1.36-1.83-2.04-2.19-.13-.07-.28-.11-.43-.11h-1.36c-.13,0-.26.03-.38.08-.35.16-.71.38-1.13.7-.55.18-1.01.6-1.46,1.01-.23.21-.59.54-.78.62-.09-.08-.31-.37-.6-1.2-.11-.32-.38-.55-.71-.61-.05,0-.11-.01-.16-.01-.27,0-.54.12-.71.34-.63.79-1.09.89-1.42.89-.47,0-1.04-.24-1.63-.5-.59-.26-1.26-.55-1.99-.67-.47-.21-.97-.31-1.53-.31-.83,0-1.62.23-2.39.45-.69.2-1.34.38-1.94.38-.49,0-.9-.13-1.27-.41-.16-.12-.36-.18-.55-.18s-.38.06-.54.18c-.52.38-1.09.56-1.79.56-.76,0-1.59-.21-2.39-.42-.53-.14-1.07-.27-1.61-.36-.05,0-.09-.01-.14-.01-.21,0-.42.07-.59.21-.04.04-.12.06-.24.11-.11.04-.27.1-.44.19-.58-.29-1.21-.43-1.89-.43-.99,0-1.92.3-2.82.59-.79.26-1.53.5-2.21.5-.32,0-.6-.05-.87-.16-.11-.04-.22-.07-.34-.07-.02,0-.05,0-.07,0l-.24.02c-2.43.19-4.95.4-7.41.4-2.01,0-3.8-.13-5.45-.41-1.27-.48-2.62-.7-4.25-.7-1.06,0-2.12.09-3.14.18-1.03.09-2,.18-2.97.18-.69,0-1.31-.04-1.89-.14-.99-.66-2.04-.98-3.2-.98-1.18,0-2.29.33-3.36.64-1,.29-1.94.57-2.86.57-.19,0-.37-.01-.54-.04-.04,0-.08,0-.12,0-.09,0-.18.01-.27.04-.23.07-.44.14-.65.2-.82.26-1.47.46-2.02.46-.48,0-1.04-.15-1.84-1.19-.04-.09-.09-.17-.13-.25-.16-.28-.47-.46-.79-.46h-1.84c-.25,0-.49.1-.66.28-.15.15-.29.32-.44.49-.25.28-.69.78-.92.88-.04-.04-.13-.12-.25-.31-.12-.19-.31-.34-.54-.4-1.2-.32-2.33-.48-3.47-.48-1.88,0-3.78.41-6.49,1.39-1.95-1.03-4.47-1.6-7.15-1.6-2.54,0-4.93.52-6.61,1.43-.04,0-.09,0-.13,0-1.69,0-3.16.29-4.58.57-.67.13-1.35.27-2.06.37-2.12-1.22-3.56-1.96-5.39-1.96-.63,0-1.3.09-2.05.28-1.54-.56-3.13-.87-4.85-.94h-1.8c-1.6.07-3.12.27-4.72.49-1.05.14-2.13.29-3.24.4-.32-.26-.61-.5-.89-.71-.16-.12-.35-.19-.55-.19h-11.16c-.05,0-.11,0-.16.01-.2.03-.34.05-.42.05-.05,0-.1-.01-.15-.01-.36,0-.71.21-.86.55-.05.11-.36.11-.45.11-.53,0-1.24-.19-1.8-.34-.5-.13-.89-.24-1.22-.24-.1,0-.19,0-.27.03-.16.03-.3.1-.42.21-.65.57-1.65.86-2.98.86-1.05,0-2.27-.18-3.74-.54-.84-.46-1.69-.68-2.66-.68-.61,0-1.19.09-1.75.17-.54.08-1.05.16-1.57.16-.31,0-.61-.03-.89-.09-.17-.09-.35-.16-.53-.21-.09-.03-.18-.04-.27-.04h-1.66c-.07,0-.14,0-.21.02-.61.14-1.21.38-1.79.61-.8.32-1.56.63-2.23.63-.5,0-.91-.17-1.32-.56-.2-.2-.46-.4-.77-.58-.14-.08-.3-.12-.46-.12h-4.69c-.07,0-.15,0-.22.03l-.26.06c-.62.15-1.2.3-1.66.35-.2-.05-.39-.07-.59-.07-.93,0-1.69.5-2.35.94-.5.33-.97.65-1.37.65-.34,0-.74-.26-1.18-.78-.12-.14-.28-.24-.45-.29-1.73-.48-3.59-.7-5.33-.89-.03,0-.07,0-.1,0h-1.5c-.06,0-.13,0-.19.02-.76.16-1.48.39-2.18.61-1.12.35-2.18.68-3.2.68s-1.95-.35-2.87-1.1c-.16-.13-.37-.21-.58-.21h-.8c-.1,0-.2.02-.29.05l-.35.12c-1.47.49-2.87.96-4.22.96-1.09,0-2.03-.3-2.94-.95-.16-.11-.34-.17-.53-.17h-.44c-.25,0-.49.1-.67.29-.61.65-1.04.73-1.35.73-.35,0-.74-.13-1.16-.26-.48-.16-1.03-.34-1.62-.34-.5,0-.97.13-1.4.38-.15.06-.29.12-.43.18-.35.15-.67.29-.9.29-.27,0-.6-.29-.98-.87-.17-.25-.46-.41-.76-.41h-.55c-.23,0-.44.08-.61.23-.78.7-1.68,1.07-2.59,1.07-.54,0-1.08-.13-1.59-.38-.13-.06-.26-.09-.4-.09-.14,0-.29.03-.42.1-.03,0-.07,0-.12,0-.51,0-1.44-.15-2.27-.29-.91-.15-1.76-.29-2.34-.29h-.12c-.09,0-.17.02-.25.05-.82.27-1.74.41-2.81.41-1.14,0-2.3-.15-3.52-.3-1.23-.15-2.5-.32-3.76-.32-1.48,0-2.77.23-3.93.69-1.16.05-2.32.2-3.43.35-1.36.18-2.64.35-3.93.35-.07,0-.13,0-.2,0-.52-.55-1.07-1.09-1.62-1.45-.15-.1-.33-.15-.51-.15h-.87c-.57,0-1.17.03-1.77.1-.03,0-.07,0-.1.02,0,0-.02,0-.02,0-.14.02-.27.04-.41.06l-.18.03c-.16.02-.31.09-.44.19-.36.29-.68.74-.98,1.18-.08.12-.18.26-.29.4-.06-.12-.14-.22-.24-.3-.13-.1-.25-.19-.36-.27-.06-.09-.14-.16-.23-.23-.16-.11-.34-.16-.52-.16-.11,0-.22.02-.32.06-4.13,1.56-7.53,4.76-9.33,8.78-.13.28-.1.61.07.87.17.26.46.42.77.42h.89c-.19.67-.44,1.32-.67,1.95-.62,1.66-1.26,3.37-.98,5.37-.44,1.25.15,2.45.63,3.43.75,1.53.91,2.1-.11,2.89-.96.54-1.52,1.18-1.7,1.93-.28,1.13.39,2.13.92,2.93.17.25.32.48.44.71,1.05,1.77,1.33,3.16.94,4.66-.02.08-.03.16-.03.25.04,2.01-.5,4.05-1.06,6.22C2.11-3.24,1.5-.91,1.58,1.43c0,.06.01.12.02.18,1.27,5.39,5.13,9.77,10.32,11.73.1.04.21.06.32.06.18,0,.37-.06.52-.16.25-.17.4-.45.4-.75v-1.47c.06-.05.13-.1.19-.15.1-.08.18-.18.24-.3.1.14.21.29.29.4.53.76,1.07,1.54,1.91,1.54.04,0,.08,0,.12,0,.53.3,1.04.45,1.55.45,1.24,0,2.25-.89,3.31-2.02.07,0,.13,0,.2,0,1.29,0,2.57.17,3.93.35,1.12.15,2.27.31,3.43.35,1.16.47,2.45.69,3.93.69,1.26,0,2.53-.16,3.76-.32,1.22-.15,2.38-.3,3.52-.3,1.06,0,1.98.13,2.81.41.08.03.17.04.25.05h.12c.57,0,1.43-.14,2.34-.29.83-.14,1.76-.29,2.27-.29.06,0,.1,0,.12,0,.13.07.27.1.42.1.14,0,.27-.03.4-.09.53-.25,1.07-.38,1.62-.38,1.02,0,2.01.47,2.86,1.35.17.18.41.28.66.28.03,0,.07,0,.1,0,.28-.03.53-.19.68-.44.32-.52.78-1.15,1.16-1.15.22,0,.55.14.89.29.14.06.28.12.43.18.43.25.9.37,1.4.37.6,0,1.15-.18,1.63-.34.41-.14.8-.27,1.16-.27s.81.1,1.49.9c.18.21.44.32.7.32.2,0,.4-.06.57-.2.97-.76,1.98-1.12,3.15-1.12,1.35,0,2.74.47,4.21.96.31.11.63.21.94.31.09.03.19.04.28.04.22,0,.44-.08.61-.23.99-.87,1.96-1.27,3.07-1.27,1.02,0,2.08.33,3.2.69.89.28,1.81.57,2.8.72.05,0,.09.01.14.01.03,0,.07,0,.1,0l.42-.04c1.85-.2,3.95-.42,5.86-.95.18-.05.33-.15.45-.29.44-.52.84-.78,1.18-.78.39,0,.86.31,1.37.65.67.44,1.42.94,2.35.94.2,0,.4-.02.59-.07.46.05,1.04.2,1.66.35,1.02.26,2.18.55,3.31.55,1.29,0,2.34-.4,3.12-1.18.39-.36.79-.53,1.3-.53.67,0,1.43.3,2.23.63.92.37,1.87.75,2.88.75.56,0,1.1-.12,1.58-.37.29-.06.58-.09.89-.09.52,0,1.03.08,1.57.16.56.08,1.14.17,1.75.17.96,0,1.81-.22,2.66-.68,1.47-.36,2.69-.54,3.74-.54,1.33,0,2.33.29,2.98.86.12.11.27.18.42.21.08.02.17.03.27.03.33,0,.72-.11,1.22-.24.57-.15,1.27-.34,1.8-.34.09,0,.41,0,.45.11.15.34.48.55.84.55.05,0,.1,0,.15-.01h0c.26,0,.67.09,1.07.18.62.14,1.33.29,2,.29.36,0,.67-.04.96-.13,1.19,1.01,2.39,1.5,3.65,1.5,2.03,0,3.9-1.34,5.52-2.67,1.11.11,2.19.26,3.24.4,1.93.26,3.75.51,5.64.51,2.09,0,3.91-.31,5.73-.97.74.19,1.41.28,2.05.28,1.83,0,3.28-.74,5.39-1.96.71.11,1.4.24,2.06.37,1.42.28,2.88.57,4.58.57.04,0,.09,0,.13,0,1.68.91,4.07,1.43,6.61,1.43,2.68,0,5.2-.56,7.15-1.6,2.71.99,4.61,1.39,6.49,1.39,1.14,0,2.27-.16,3.47-.48.22-.06.41-.2.54-.4.13-.2.22-.29.26-.32.2.08.66.6.91.89.61.7,1.25,1.42,2.14,1.42.71,0,1.29-.45,1.73-1.35.8-1.04,1.36-1.19,1.84-1.19.54,0,1.19.21,2.02.46.21.07.43.13.65.2.09.03.18.04.27.04.04,0,.08,0,.12,0,.17-.02.36-.04.54-.04.92,0,1.86.28,2.86.57,1.07.32,2.19.64,3.36.64s2.21-.32,3.2-.98c.58-.09,1.2-.14,1.89-.14.98,0,1.95.09,2.97.18,1.02.09,2.08.18,3.14.18,1.63,0,2.99-.22,4.25-.7,1.66-.28,3.44-.41,5.45-.41,2.47,0,4.98.2,7.41.4l.25.02s.05,0,.07,0c.12,0,.23-.02.34-.07.27-.11.55-.16.87-.16.68,0,1.43.24,2.21.5.9.29,1.83.59,2.82.59.68,0,1.3-.14,1.89-.43.17.1.33.15.44.19.12.04.2.07.24.11.17.14.37.21.59.21.05,0,.09,0,.14-.01.53-.08,1.08-.22,1.61-.36.8-.2,1.63-.42,2.39-.42.7,0,1.27.18,1.79.56.16.12.35.18.54.18s.39-.06.55-.18c.38-.28.78-.41,1.27-.41.59,0,1.25.19,1.94.38.77.22,1.57.45,2.39.45.56,0,1.06-.1,1.53-.31.73-.12,1.4-.41,1.99-.67.6-.26,1.16-.5,1.63-.5.33,0,.78.1,1.42.89.18.22.44.34.71.34.05,0,.11,0,.16-.01.33-.06.6-.29.71-.61.29-.85.52-1.13.6-1.21.17.07.55.42.78.63.44.41.9.83,1.46,1.01.64.49,1.39.96,2.22.96,1.25,0,2.13-1,3.12-2.48,2.63,1.01,5.3,1.16,7.88,1.3,1.22.07,2.38.13,3.53.28.63.22,1.27.33,1.95.33,1.27,0,2.41-.38,3.52-.74,1.01-.33,1.97-.65,2.93-.65.34,0,.66.04.98.12,1.85,1.43,3.9,2.12,6.25,2.12,2.12,0,4.21-.55,6.24-1.09,1.97-.52,3.83-1.01,5.65-1.01h.13s0,0,.01,0c.08,0,.15,0,.22-.03.96-.24,1.96-.37,2.97-.37,1.9,0,3.93.43,6.21,1.31.73.44,1.53.67,2.38.67,1.25,0,2.44-.47,3.59-.93,1.05-.42,2.03-.81,2.97-.81.26,0,.51.03.75.1.45.5,1.13.75,2.03.75.85,0,1.84-.21,2.98-.45,1.39-.29,2.97-.62,4.56-.62.79,0,1.5.08,2.17.24.03,0,.07.01.1.02,2.26.27,4.43.32,6.17.36.87.02,1.83.04,2.44.1.2.4.69.56,1.32.64v.43c0,.31.15.59.41.76.15.1.33.15.51.15.12,0,.24-.02.35-.07,5.75-2.39,9.65-7.72,10.19-13.91,0-.07,0-.13,0-.2-.2-1.53-.6-3.06-.99-4.53-.57-2.17-1.1-4.22-1.06-6.22,0-.08,0-.17-.03-.25-.38-1.5-.11-2.88.93-4.63.14-.25.29-.48.46-.73.25-.37.5-.75.69-1.17.06-.12.08-.25.08-.38v-1.56c0-.17-.05-.33-.13-.48-.29-.48-.76-.89-1.42-1.27-1.02-.79-.86-1.36-.11-2.89.48-.98,1.07-2.18.63-3.43.28-2-.36-3.71-.98-5.37-.24-.64-.48-1.28-.67-1.95h.4c.31,0,.6-.16.77-.42.17-.26.19-.59.07-.87-1.94-4.33-5.63-7.64-10.14-9.08-.09-.03-.18-.04-.28-.04-.07,0-.15,0-.22.03-.42.1-.63.32-.74.53-.61.06-1.57.08-2.46.1-1.74.04-3.91.08-6.17.36-.04,0-.07.01-.1.02-.67.16-1.38.24-2.17.24-1.59,0-3.17-.33-4.56-.62-1.14-.24-2.13-.45-2.98-.45-.9,0-1.58.25-2.03.75-.24.06-.49.1-.75.1-.93,0-1.92-.39-2.97-.81-1.15-.46-2.33-.93-3.59-.93-.85,0-1.65.22-2.38.67-2.28.88-4.31,1.31-6.21,1.31-1.01,0-2.01-.12-2.97-.37-.07-.02-.15-.03-.22-.03,0,0,0,0-.01,0h-.13c-1.82,0-3.68-.49-5.65-1.01-.8-.21-1.62-.43-2.45-.61-.06-.01-.13-.02-.2-.02h0Z"/>
      </g>
    </g>
  </g>
</svg>